{"accessors":[{"bufferView":0,"byteOffset":0,"componentType":5123,"count":768,"type":"SCALAR"},{"bufferView":1,"byteOffset":0,"componentType":5126,"count":476,"max":[0.00504999980330467,0.00061130401445552,0.00504999980330467],"min":[-0.0050499998033,-0.01142583601177,-0.00505000026897],"type":"VEC3"},{"bufferView":2,"byteOffset":0,"componentType":5126,"count":476,"type":"VEC3"},{"bufferView":3,"byteOffset":0,"componentType":5126,"count":476,"type":"VEC2"},{"bufferView":4,"byteOffset":0,"componentType":5123,"count":864,"type":"SCALAR"},{"bufferView":5,"byteOffset":0,"componentType":5126,"count":530,"max":[0.0048295664601028,-0.00035310114617,0.00482956692576408],"min":[-0.00482956692576,-0.01060842256993,-0.00482956739143],"type":"VEC3"},{"bufferView":6,"byteOffset":0,"componentType":5126,"count":530,"type":"VEC3"},{"bufferView":7,"byteOffset":0,"componentType":5126,"count":530,"type":"VEC2"}],"asset":{"generator":"FBX2glTF v0.13.1","version":"2.0"},"bufferViews":[{"buffer":0,"byteLength":1536,"byteOffset":0,"target":34963},{"buffer":0,"byteLength":5712,"byteOffset":1536,"target":34962},{"buffer":0,"byteLength":5712,"byteOffset":7248,"target":34962},{"buffer":0,"byteLength":3808,"byteOffset":12960,"target":34962},{"buffer":0,"byteLength":1728,"byteOffset":16768,"target":34963},{"buffer":0,"byteLength":6360,"byteOffset":18496,"target":34962},{"buffer":0,"byteLength":6360,"byteOffset":24856,"target":34962},{"buffer":0,"byteLength":4240,"byteOffset":31216,"target":34962}],"buffers":[{"byteLength":35456,"uri":"Barrel.bin"}],"materials":[{"alphaMode":"OPAQUE","doubleSided":false,"extras":{"fromFBX":{"isTruePBR":false,"shadingModel":"Phong"}},"name":"Barrel","pbrMetallicRoughness":{"baseColorFactor":[0.800000011920929,0.800000011920929,0.800000011920929,1],"metallicFactor":0.400000005960464,"roughnessFactor":0.272165536880493}},{"alphaMode":"OPAQUE","doubleSided":false,"extras":{"fromFBX":{"isTruePBR":false,"shadingModel":"Phong"}},"name":"Metal","pbrMetallicRoughness":{"baseColorFactor":[0.800000011920929,0.800000011920929,0.800000011920929,1],"metallicFactor":0.400000005960464,"roughnessFactor":0.272165536880493}}],"meshes":[{"name":"Barrel","primitives":[{"attributes":{"NORMAL":2,"POSITION":1,"TEXCOORD_0":3},"indices":0,"material":0,"mode":4},{"attributes":{"NORMAL":6,"POSITION":5,"TEXCOORD_0":7},"indices":4,"material":1,"mode":4}]}],"nodes":[{"mesh":0,"name":"Barrel","rotation":[-0.00000015695824,-0,0,1],"scale":[0.999999940395355,0.999999940395355,0.999999940395355],"translation":[0,0,0]}],"samplers":[{}],"scene":0,"scenes":[{"name":"Root Scene","nodes":[0]}]}