{"accessors":[{"bufferView":0,"byteOffset":0,"componentType":5123,"count":1338,"type":"SCALAR"},{"bufferView":1,"byteOffset":0,"componentType":5126,"count":1011,"max":[9.64719581604004,9.56734752655029,9.93639278411865],"min":[-10.0655841827393,-0.43768584728241,-9.68605899810791],"type":"VEC3"},{"bufferView":2,"byteOffset":0,"componentType":5126,"count":1011,"type":"VEC3"},{"bufferView":3,"byteOffset":0,"componentType":5126,"count":1011,"type":"VEC2"}],"asset":{"generator":"FBX2glTF v0.13.1","version":"2.0"},"bufferViews":[{"buffer":0,"byteLength":2676,"byteOffset":0,"target":34963},{"buffer":0,"byteLength":12132,"byteOffset":2676,"target":34962},{"buffer":0,"byteLength":12132,"byteOffset":14808,"target":34962},{"buffer":0,"byteLength":8088,"byteOffset":26940,"target":34962}],"buffers":[{"byteLength":35028,"uri":"BigRock2.bin"}],"materials":[{"alphaMode":"OPAQUE","doubleSided":false,"extras":{"fromFBX":{"isTruePBR":false,"shadingModel":"Phong"}},"name":"Orange.001","pbrMetallicRoughness":{"baseColorFactor":[0.799102783203125,0.401977837085724,0.114435374736786,0],"metallicFactor":0.400000005960464,"roughnessFactor":0.415087103843689}}],"meshes":[{"name":"BigRock2","primitives":[{"attributes":{"NORMAL":2,"POSITION":1,"TEXCOORD_0":3},"indices":0,"material":0,"mode":4}]}],"nodes":[{"mesh":0,"name":"BigRock2","rotation":[0.000000141064987246864,0,0,1],"scale":[0.0120010226964951,0.00876387674361467,0.0132105248048902],"translation":[0,0,0]}],"samplers":[{}],"scene":0,"scenes":[{"name":"Root Scene","nodes":[0]}]}