{"accessors":[{"bufferView":0,"byteOffset":0,"componentType":5123,"count":2562,"type":"SCALAR"},{"bufferView":1,"byteOffset":0,"componentType":5126,"count":1786,"max":[17.6739158630371,10.7766027450562,13.3019104003906],"min":[-18.0584239959717,3.10466027259827,-9.17562007904053],"type":"VEC3"},{"bufferView":2,"byteOffset":0,"componentType":5126,"count":1786,"type":"VEC3"},{"bufferView":3,"byteOffset":0,"componentType":5126,"count":1786,"type":"VEC2"},{"bufferView":4,"byteOffset":0,"componentType":5123,"count":2526,"type":"SCALAR"},{"bufferView":5,"byteOffset":0,"componentType":5126,"count":1544,"max":[15.931492805481,10.4115419387817,12.4756259918213],"min":[-16.4958477020264,3.19710564613342,-6.0674901008606],"type":"VEC3"},{"bufferView":6,"byteOffset":0,"componentType":5126,"count":1544,"type":"VEC3"},{"bufferView":7,"byteOffset":0,"componentType":5126,"count":1544,"type":"VEC2"}],"asset":{"generator":"FBX2glTF v0.13.1","version":"2.0"},"bufferViews":[{"buffer":0,"byteLength":5124,"byteOffset":0,"target":34963},{"buffer":0,"byteLength":21432,"byteOffset":5124,"target":34962},{"buffer":0,"byteLength":21432,"byteOffset":26556,"target":34962},{"buffer":0,"byteLength":14288,"byteOffset":47988,"target":34962},{"buffer":0,"byteLength":5052,"byteOffset":62276,"target":34963},{"buffer":0,"byteLength":18528,"byteOffset":67328,"target":34962},{"buffer":0,"byteLength":18528,"byteOffset":85856,"target":34962},{"buffer":0,"byteLength":12352,"byteOffset":104384,"target":34962}],"buffers":[{"byteLength":116736,"uri":"BigRock1.bin"}],"materials":[{"alphaMode":"OPAQUE","doubleSided":false,"extras":{"fromFBX":{"isTruePBR":false,"shadingModel":"Phong"}},"name":"Brown.14","pbrMetallicRoughness":{"baseColorFactor":[0.30319806933403,0.126851946115494,0.0369991697371006,0],"metallicFactor":0.400000005960464,"roughnessFactor":0.415087103843689}},{"alphaMode":"OPAQUE","doubleSided":false,"extras":{"fromFBX":{"isTruePBR":false,"shadingModel":"Phong"}},"name":"Brown.15","pbrMetallicRoughness":{"baseColorFactor":[0.800000071525574,0.486492931842804,0.144071638584137,0],"metallicFactor":0.400000005960464,"roughnessFactor":0.415087103843689}}],"meshes":[{"name":"Bigrock1","primitives":[{"attributes":{"NORMAL":2,"POSITION":1,"TEXCOORD_0":3},"indices":0,"material":0,"mode":4},{"attributes":{"NORMAL":6,"POSITION":5,"TEXCOORD_0":7},"indices":4,"material":1,"mode":4}]}],"nodes":[{"mesh":0,"name":"Bigrock1","rotation":[0.0000000814603424714733,0,0,1],"scale":[0.00999999977648258,0.00999999977648258,0.00999999977648258],"translation":[0,0,0]}],"samplers":[{}],"scene":0,"scenes":[{"name":"Root Scene","nodes":[0]}]}