{"accessors":[{"bufferView":0,"byteOffset":0,"componentType":5123,"count":5736,"type":"SCALAR"},{"bufferView":1,"byteOffset":0,"componentType":5126,"count":3606,"max":[7.79247713088989,7.62444829940796,7.98978233337402],"min":[-7.93114900588989,-0.22010914981365,-8.75684070587158],"type":"VEC3"},{"bufferView":2,"byteOffset":0,"componentType":5126,"count":3606,"type":"VEC3"},{"bufferView":3,"byteOffset":0,"componentType":5126,"count":3606,"type":"VEC2"}],"asset":{"generator":"FBX2glTF v0.13.1","version":"2.0"},"bufferViews":[{"buffer":0,"byteLength":11472,"byteOffset":0,"target":34963},{"buffer":0,"byteLength":43272,"byteOffset":11472,"target":34962},{"buffer":0,"byteLength":43272,"byteOffset":54744,"target":34962},{"buffer":0,"byteLength":28848,"byteOffset":98016,"target":34962}],"buffers":[{"byteLength":126864,"uri":"BigRock3.bin"}],"materials":[{"alphaMode":"OPAQUE","doubleSided":false,"extras":{"fromFBX":{"isTruePBR":false,"shadingModel":"Phong"}},"name":"Orange.3","pbrMetallicRoughness":{"baseColorFactor":[0.800000071525574,0.401398032903671,0.114971607923508,0],"metallicFactor":0.400000005960464,"roughnessFactor":0.415087103843689}}],"meshes":[{"name":"Bigrock3","primitives":[{"attributes":{"NORMAL":2,"POSITION":1,"TEXCOORD_0":3},"indices":0,"material":0,"mode":4}]}],"nodes":[{"mesh":0,"name":"Bigrock3","rotation":[0.0000000814603424714733,0,0,1],"scale":[0.00999996718019247,0.00999999977648258,0.016521031036973],"translation":[0,0,0]}],"samplers":[{}],"scene":0,"scenes":[{"name":"Root Scene","nodes":[0]}]}