{"accessors":[{"bufferView":0,"byteOffset":0,"componentType":5123,"count":186,"type":"SCALAR"},{"bufferView":1,"byteOffset":0,"componentType":5126,"count":132,"max":[0.00583523185923696,0.00656296592205763,0.0046995566226542],"min":[-0.005902397912,-0.00075831409777,-0.00026036083],"type":"VEC3"},{"bufferView":2,"byteOffset":0,"componentType":5126,"count":132,"type":"VEC3"},{"bufferView":3,"byteOffset":0,"componentType":5126,"count":132,"type":"VEC2"}],"asset":{"generator":"FBX2glTF v0.13.1","version":"2.0"},"bufferViews":[{"buffer":0,"byteLength":372,"byteOffset":0,"target":34963},{"buffer":0,"byteLength":1584,"byteOffset":372,"target":34962},{"buffer":0,"byteLength":1584,"byteOffset":1956,"target":34962},{"buffer":0,"byteLength":1056,"byteOffset":3540,"target":34962}],"buffers":[{"byteLength":4596,"uri":"Box.bin"}],"materials":[{"alphaMode":"OPAQUE","doubleSided":false,"extras":{"fromFBX":{"isTruePBR":false,"shadingModel":"Lambert"}},"name":"DefaultMaterial","pbrMetallicRoughness":{"baseColorFactor":[0.5,0.5,0.5,1],"metallicFactor":0.200000002980232,"roughnessFactor":0.800000011920929}}],"meshes":[{"name":"Box","primitives":[{"attributes":{"NORMAL":2,"POSITION":1,"TEXCOORD_0":3},"indices":0,"material":0,"mode":4}]}],"nodes":[{"mesh":0,"name":"Box","rotation":[0.000000021855694143369,0,0,1],"scale":[1,1,1],"translation":[0,0,0]}],"samplers":[{}],"scene":0,"scenes":[{"name":"Root Scene","nodes":[0]}]}