{"accessors":[{"bufferView":0,"byteOffset":0,"componentType":5123,"count":420,"type":"SCALAR"},{"bufferView":1,"byteOffset":0,"componentType":5126,"count":256,"max":[0.0537351705133915,0.0813342779874802,0.0537351705133915],"min":[-0.0021494096145,0.0343905054032803,-0.0021494096145],"type":"VEC3"},{"bufferView":2,"byteOffset":0,"componentType":5126,"count":256,"type":"VEC3"},{"bufferView":3,"byteOffset":0,"componentType":5126,"count":256,"type":"VEC2"},{"bufferView":4,"byteOffset":0,"componentType":5126,"count":256,"type":"VEC2"},{"bufferView":5,"byteOffset":0,"componentType":5123,"count":1566,"type":"SCALAR"},{"bufferView":6,"byteOffset":0,"componentType":5126,"count":1016,"max":[0.0548098683357239,0.0666316077113152,0.0548098683357239],"min":[-0.05695927515626,-0.00000000049904,-0.05695927515626],"type":"VEC3"},{"bufferView":7,"byteOffset":0,"componentType":5126,"count":1016,"type":"VEC3"},{"bufferView":8,"byteOffset":0,"componentType":5126,"count":1016,"type":"VEC2"},{"bufferView":9,"byteOffset":0,"componentType":5126,"count":1016,"type":"VEC2"},{"bufferView":10,"byteOffset":0,"componentType":5123,"count":17544,"type":"SCALAR"},{"bufferView":11,"byteOffset":0,"componentType":5126,"count":11444,"max":[0.0537351705133915,0.0800197795033455,0.0537351705133915],"min":[-0.05588457360864,0,-0.07450514286757],"type":"VEC3"},{"bufferView":12,"byteOffset":0,"componentType":5126,"count":11444,"type":"VEC3"},{"bufferView":13,"byteOffset":0,"componentType":5126,"count":11444,"type":"VEC2"},{"bufferView":14,"byteOffset":0,"componentType":5126,"count":11444,"type":"VEC2"},{"bufferView":15,"byteOffset":0,"componentType":5123,"count":642,"type":"SCALAR"},{"bufferView":16,"byteOffset":0,"componentType":5126,"count":302,"max":[0.0333158038556576,0.0644822046160698,0.0333158038556576],"min":[-0.05373517051339,0,-0.05373517051339],"type":"VEC3"},{"bufferView":17,"byteOffset":0,"componentType":5126,"count":302,"type":"VEC3"},{"bufferView":18,"byteOffset":0,"componentType":5126,"count":302,"type":"VEC2"},{"bufferView":19,"byteOffset":0,"componentType":5126,"count":302,"type":"VEC2"},{"bufferView":20,"byteOffset":0,"componentType":5123,"count":96,"type":"SCALAR"},{"bufferView":21,"byteOffset":0,"componentType":5126,"count":54,"max":[0.0548098683357239,0.0323250889778137,0.0548098683357239],"min":[-0.05695927515626,0.0322410985827446,-0.05695927515626],"type":"VEC3"},{"bufferView":22,"byteOffset":0,"componentType":5126,"count":54,"type":"VEC3"},{"bufferView":23,"byteOffset":0,"componentType":5126,"count":54,"type":"VEC2"},{"bufferView":24,"byteOffset":0,"componentType":5126,"count":54,"type":"VEC2"},{"bufferView":25,"byteOffset":0,"componentType":5123,"count":72,"type":"SCALAR"},{"bufferView":26,"byteOffset":0,"componentType":5126,"count":48,"max":[0.0486923307180405,0.0788615718483925,0.0486923307180405],"min":[0.0179470237344503,0.071289137005806,0.0179470237344503],"type":"VEC3"},{"bufferView":27,"byteOffset":0,"componentType":5126,"count":48,"type":"VEC3"},{"bufferView":28,"byteOffset":0,"componentType":5126,"count":48,"type":"VEC2"},{"bufferView":29,"byteOffset":0,"componentType":5126,"count":48,"type":"VEC2"},{"bufferView":30,"byteOffset":0,"componentType":5123,"count":324,"type":"SCALAR"},{"bufferView":31,"byteOffset":0,"componentType":5126,"count":202,"max":[0.0391551926732063,0.0298425946384668,0.0301408972591162],"min":[0.0123186875134706,0.00177649490069598,0.00887515768408775],"type":"VEC3"},{"bufferView":32,"byteOffset":0,"componentType":5126,"count":202,"type":"VEC3"},{"bufferView":33,"byteOffset":0,"componentType":5126,"count":202,"type":"VEC2"},{"bufferView":34,"byteOffset":0,"componentType":5126,"count":202,"type":"VEC2"},{"bufferView":35,"byteOffset":0,"componentType":5123,"count":12624,"type":"SCALAR"},{"bufferView":36,"byteOffset":0,"componentType":5126,"count":6928,"max":[0.038764052093029,0.0594456978142262,0.0354560017585754],"min":[-0.04934047907591,0.00413415767252445,-0.04425681009889],"type":"VEC3"},{"bufferView":37,"byteOffset":0,"componentType":5126,"count":6928,"type":"VEC3"},{"bufferView":38,"byteOffset":0,"componentType":5126,"count":6928,"type":"VEC2"},{"bufferView":39,"byteOffset":0,"componentType":5126,"count":6928,"type":"VEC2"},{"bufferView":40,"byteOffset":0,"componentType":5123,"count":1248,"type":"SCALAR"},{"bufferView":41,"byteOffset":0,"componentType":5126,"count":812,"max":[0.0391551926732063,0.0598679855465889,0.03329923376441],"min":[-0.04506773874164,0.00177013548091054,-0.04542352631688],"type":"VEC3"},{"bufferView":42,"byteOffset":0,"componentType":5126,"count":812,"type":"VEC3"},{"bufferView":43,"byteOffset":0,"componentType":5126,"count":812,"type":"VEC2"},{"bufferView":44,"byteOffset":0,"componentType":5126,"count":812,"type":"VEC2"},{"bufferView":45,"byteOffset":0,"componentType":5123,"count":372,"type":"SCALAR"},{"bufferView":46,"byteOffset":0,"componentType":5126,"count":248,"max":[0.0464662909507751,0.0673689171671867,0.0148786399513483],"min":[-0.04436808079481,0.00405820133164525,-0.05892970785499],"type":"VEC3"},{"bufferView":47,"byteOffset":0,"componentType":5126,"count":248,"type":"VEC3"},{"bufferView":48,"byteOffset":0,"componentType":5126,"count":248,"type":"VEC2"},{"bufferView":49,"byteOffset":0,"componentType":5126,"count":248,"type":"VEC2"},{"bufferView":50,"byteOffset":0,"componentType":5123,"count":3012,"type":"SCALAR"},{"bufferView":51,"byteOffset":0,"componentType":5126,"count":2048,"max":[0.0464662909507751,0.0712201148271561,0.00651035783812404],"min":[-0.05345028266311,-0.00227370974608,-0.07615783065557],"type":"VEC3"},{"bufferView":52,"byteOffset":0,"componentType":5126,"count":2048,"type":"VEC3"},{"bufferView":53,"byteOffset":0,"componentType":5126,"count":2048,"type":"VEC2"},{"bufferView":54,"byteOffset":0,"componentType":5126,"count":2048,"type":"VEC2"},{"bufferView":55,"byteOffset":0,"componentType":5123,"count":148833,"type":"SCALAR"},{"bufferView":56,"byteOffset":0,"componentType":5126,"count":25705,"max":[0.0140819689258933,0.0192904099822044,0.110519424080849],"min":[-0.03087600879371,-0.02572667039931,0.0974548682570457],"type":"VEC3"},{"bufferView":57,"byteOffset":0,"componentType":5126,"count":25705,"type":"VEC3"},{"bufferView":58,"byteOffset":0,"componentType":5126,"count":25705,"type":"VEC2"},{"bufferView":59,"byteOffset":0,"componentType":5126,"count":25705,"type":"VEC2"},{"bufferView":60,"byteOffset":0,"componentType":5125,"count":1030548,"type":"SCALAR"},{"bufferView":61,"byteOffset":0,"componentType":5126,"count":178286,"max":[0.013167061842978,0.0849820598959923,0.061891745775938],"min":[-0.05687905475497,0.0157553795725107,0.0188669003546238],"type":"VEC3"},{"bufferView":62,"byteOffset":0,"componentType":5126,"count":178286,"type":"VEC3"},{"bufferView":63,"byteOffset":0,"componentType":5126,"count":178286,"type":"VEC2"},{"bufferView":64,"byteOffset":0,"componentType":5126,"count":178286,"type":"VEC2"}],"asset":{"generator":"FBX2glTF v0.13.1","version":"2.0"},"bufferViews":[{"buffer":0,"byteLength":840,"byteOffset":0,"target":34963},{"buffer":0,"byteLength":3072,"byteOffset":840,"target":34962},{"buffer":0,"byteLength":3072,"byteOffset":3912,"target":34962},{"buffer":0,"byteLength":2048,"byteOffset":6984,"target":34962},{"buffer":0,"byteLength":2048,"byteOffset":9032,"target":34962},{"buffer":0,"byteLength":3132,"byteOffset":11080,"target":34963},{"buffer":0,"byteLength":12192,"byteOffset":14212,"target":34962},{"buffer":0,"byteLength":12192,"byteOffset":26404,"target":34962},{"buffer":0,"byteLength":8128,"byteOffset":38596,"target":34962},{"buffer":0,"byteLength":8128,"byteOffset":46724,"target":34962},{"buffer":0,"byteLength":35088,"byteOffset":54852,"target":34963},{"buffer":0,"byteLength":137328,"byteOffset":89940,"target":34962},{"buffer":0,"byteLength":137328,"byteOffset":227268,"target":34962},{"buffer":0,"byteLength":91552,"byteOffset":364596,"target":34962},{"buffer":0,"byteLength":91552,"byteOffset":456148,"target":34962},{"buffer":0,"byteLength":1284,"byteOffset":547700,"target":34963},{"buffer":0,"byteLength":3624,"byteOffset":548984,"target":34962},{"buffer":0,"byteLength":3624,"byteOffset":552608,"target":34962},{"buffer":0,"byteLength":2416,"byteOffset":556232,"target":34962},{"buffer":0,"byteLength":2416,"byteOffset":558648,"target":34962},{"buffer":0,"byteLength":192,"byteOffset":561064,"target":34963},{"buffer":0,"byteLength":648,"byteOffset":561256,"target":34962},{"buffer":0,"byteLength":648,"byteOffset":561904,"target":34962},{"buffer":0,"byteLength":432,"byteOffset":562552,"target":34962},{"buffer":0,"byteLength":432,"byteOffset":562984,"target":34962},{"buffer":0,"byteLength":144,"byteOffset":563416,"target":34963},{"buffer":0,"byteLength":576,"byteOffset":563560,"target":34962},{"buffer":0,"byteLength":576,"byteOffset":564136,"target":34962},{"buffer":0,"byteLength":384,"byteOffset":564712,"target":34962},{"buffer":0,"byteLength":384,"byteOffset":565096,"target":34962},{"buffer":0,"byteLength":648,"byteOffset":565480,"target":34963},{"buffer":0,"byteLength":2424,"byteOffset":566128,"target":34962},{"buffer":0,"byteLength":2424,"byteOffset":568552,"target":34962},{"buffer":0,"byteLength":1616,"byteOffset":570976,"target":34962},{"buffer":0,"byteLength":1616,"byteOffset":572592,"target":34962},{"buffer":0,"byteLength":25248,"byteOffset":574208,"target":34963},{"buffer":0,"byteLength":83136,"byteOffset":599456,"target":34962},{"buffer":0,"byteLength":83136,"byteOffset":682592,"target":34962},{"buffer":0,"byteLength":55424,"byteOffset":765728,"target":34962},{"buffer":0,"byteLength":55424,"byteOffset":821152,"target":34962},{"buffer":0,"byteLength":2496,"byteOffset":876576,"target":34963},{"buffer":0,"byteLength":9744,"byteOffset":879072,"target":34962},{"buffer":0,"byteLength":9744,"byteOffset":888816,"target":34962},{"buffer":0,"byteLength":6496,"byteOffset":898560,"target":34962},{"buffer":0,"byteLength":6496,"byteOffset":905056,"target":34962},{"buffer":0,"byteLength":744,"byteOffset":911552,"target":34963},{"buffer":0,"byteLength":2976,"byteOffset":912296,"target":34962},{"buffer":0,"byteLength":2976,"byteOffset":915272,"target":34962},{"buffer":0,"byteLength":1984,"byteOffset":918248,"target":34962},{"buffer":0,"byteLength":1984,"byteOffset":920232,"target":34962},{"buffer":0,"byteLength":6024,"byteOffset":922216,"target":34963},{"buffer":0,"byteLength":24576,"byteOffset":928240,"target":34962},{"buffer":0,"byteLength":24576,"byteOffset":952816,"target":34962},{"buffer":0,"byteLength":16384,"byteOffset":977392,"target":34962},{"buffer":0,"byteLength":16384,"byteOffset":993776,"target":34962},{"buffer":0,"byteLength":297666,"byteOffset":1010160,"target":34963},{"buffer":0,"byteLength":308460,"byteOffset":1307828,"target":34962},{"buffer":0,"byteLength":308460,"byteOffset":1616288,"target":34962},{"buffer":0,"byteLength":205640,"byteOffset":1924748,"target":34962},{"buffer":0,"byteLength":205640,"byteOffset":2130388,"target":34962},{"buffer":0,"byteLength":4122192,"byteOffset":2336028,"target":34963},{"buffer":0,"byteLength":2139432,"byteOffset":6458220,"target":34962},{"buffer":0,"byteLength":2139432,"byteOffset":8597652,"target":34962},{"buffer":0,"byteLength":1426288,"byteOffset":10737084,"target":34962},{"buffer":0,"byteLength":1426288,"byteOffset":12163372,"target":34962}],"buffers":[{"byteLength":13589660,"uri":"building1.bin"}],"materials":[{"alphaMode":"OPAQUE","doubleSided":false,"extras":{"fromFBX":{"isTruePBR":false,"shadingModel":"Phong"}},"name":"Panels.002","pbrMetallicRoughness":{"baseColorFactor":[0.800000011920929,0.800000011920929,0.800000011920929,1],"metallicFactor":0.400000005960464,"roughnessFactor":0.272165536880493}},{"alphaMode":"OPAQUE","doubleSided":false,"extras":{"fromFBX":{"isTruePBR":false,"shadingModel":"Phong"}},"name":"Floors.002","pbrMetallicRoughness":{"baseColorFactor":[0.800000011920929,0.800000011920929,0.800000011920929,1],"metallicFactor":0.400000005960464,"roughnessFactor":0.272165536880493}},{"alphaMode":"OPAQUE","doubleSided":false,"extras":{"fromFBX":{"isTruePBR":false,"shadingModel":"Phong"}},"name":"Posts.001","pbrMetallicRoughness":{"baseColorFactor":[0.800000011920929,0.800000011920929,0.800000011920929,1],"metallicFactor":0.400000005960464,"roughnessFactor":0.272165536880493}},{"alphaMode":"OPAQUE","doubleSided":false,"extras":{"fromFBX":{"isTruePBR":false,"shadingModel":"Phong"}},"name":"Walls.002","pbrMetallicRoughness":{"baseColorFactor":[0.800000011920929,0.800000011920929,0.800000011920929,1],"metallicFactor":0.400000005960464,"roughnessFactor":0.272165536880493}},{"alphaMode":"OPAQUE","doubleSided":false,"extras":{"fromFBX":{"isTruePBR":false,"shadingModel":"Phong"}},"name":"Floors2.001","pbrMetallicRoughness":{"baseColorFactor":[0.800000011920929,0.800000011920929,0.800000011920929,1],"metallicFactor":0.400000005960464,"roughnessFactor":0.272165536880493}},{"alphaMode":"OPAQUE","doubleSided":false,"extras":{"fromFBX":{"isTruePBR":false,"shadingModel":"Phong"}},"name":"Sign.002","pbrMetallicRoughness":{"baseColorFactor":[0.800000011920929,0.800000011920929,0.800000011920929,1],"metallicFactor":0.400000005960464,"roughnessFactor":0.272165536880493}},{"alphaMode":"OPAQUE","doubleSided":false,"extras":{"fromFBX":{"isTruePBR":false,"shadingModel":"Phong"}},"name":"Door.001","pbrMetallicRoughness":{"baseColorFactor":[0.800000011920929,0.800000011920929,0.800000011920929,1],"metallicFactor":0.400000005960464,"roughnessFactor":0.272165536880493}},{"alphaMode":"OPAQUE","doubleSided":false,"extras":{"fromFBX":{"isTruePBR":false,"shadingModel":"Phong"}},"name":"Shutters.002","pbrMetallicRoughness":{"baseColorFactor":[0.800000011920929,0.800000011920929,0.800000011920929,1],"metallicFactor":0.400000005960464,"roughnessFactor":0.272165536880493}},{"alphaMode":"OPAQUE","doubleSided":false,"extras":{"fromFBX":{"isTruePBR":false,"shadingModel":"Phong"}},"name":"Frames.002","pbrMetallicRoughness":{"baseColorFactor":[0.800000011920929,0.800000011920929,0.800000011920929,1],"metallicFactor":0.400000005960464,"roughnessFactor":0.272165536880493}},{"alphaMode":"OPAQUE","doubleSided":false,"extras":{"fromFBX":{"isTruePBR":false,"shadingModel":"Phong"}},"name":"Panels2.001","pbrMetallicRoughness":{"baseColorFactor":[0.800000011920929,0.800000011920929,0.800000011920929,1],"metallicFactor":0.400000005960464,"roughnessFactor":0.272165536880493}},{"alphaMode":"OPAQUE","doubleSided":false,"extras":{"fromFBX":{"isTruePBR":false,"shadingModel":"Phong"}},"name":"Stairs.002","pbrMetallicRoughness":{"baseColorFactor":[0,0,0,1],"metallicFactor":0.400000005960464,"roughnessFactor":0.301511347293854}},{"alphaMode":"OPAQUE","doubleSided":false,"extras":{"fromFBX":{"isTruePBR":false,"shadingModel":"Phong"}},"name":"Web.004","pbrMetallicRoughness":{"baseColorFactor":[1,1,1,1],"metallicFactor":0.400000005960464,"roughnessFactor":0.272165536880493}},{"alphaMode":"OPAQUE","doubleSided":false,"extras":{"fromFBX":{"isTruePBR":false,"shadingModel":"Phong"}},"name":"Web.005","pbrMetallicRoughness":{"baseColorFactor":[1,1,1,1],"metallicFactor":0.400000005960464,"roughnessFactor":0.272165536880493}}],"meshes":[{"name":"Building1","primitives":[{"attributes":{"NORMAL":2,"POSITION":1,"TEXCOORD_0":3,"TEXCOORD_1":4},"indices":0,"material":0,"mode":4},{"attributes":{"NORMAL":7,"POSITION":6,"TEXCOORD_0":8,"TEXCOORD_1":9},"indices":5,"material":1,"mode":4},{"attributes":{"NORMAL":12,"POSITION":11,"TEXCOORD_0":13,"TEXCOORD_1":14},"indices":10,"material":2,"mode":4},{"attributes":{"NORMAL":17,"POSITION":16,"TEXCOORD_0":18,"TEXCOORD_1":19},"indices":15,"material":3,"mode":4},{"attributes":{"NORMAL":22,"POSITION":21,"TEXCOORD_0":23,"TEXCOORD_1":24},"indices":20,"material":4,"mode":4},{"attributes":{"NORMAL":27,"POSITION":26,"TEXCOORD_0":28,"TEXCOORD_1":29},"indices":25,"material":5,"mode":4},{"attributes":{"NORMAL":32,"POSITION":31,"TEXCOORD_0":33,"TEXCOORD_1":34},"indices":30,"material":6,"mode":4},{"attributes":{"NORMAL":37,"POSITION":36,"TEXCOORD_0":38,"TEXCOORD_1":39},"indices":35,"material":7,"mode":4},{"attributes":{"NORMAL":42,"POSITION":41,"TEXCOORD_0":43,"TEXCOORD_1":44},"indices":40,"material":8,"mode":4},{"attributes":{"NORMAL":47,"POSITION":46,"TEXCOORD_0":48,"TEXCOORD_1":49},"indices":45,"material":9,"mode":4},{"attributes":{"NORMAL":52,"POSITION":51,"TEXCOORD_0":53,"TEXCOORD_1":54},"indices":50,"material":10,"mode":4}]},{"name":"Cobwebs.001","primitives":[{"attributes":{"NORMAL":57,"POSITION":56,"TEXCOORD_0":58,"TEXCOORD_1":59},"indices":55,"material":11,"mode":4}]},{"name":"Cobwebs.002","primitives":[{"attributes":{"NORMAL":62,"POSITION":61,"TEXCOORD_0":63,"TEXCOORD_1":64},"indices":60,"material":12,"mode":4}]}],"nodes":[{"mesh":0,"name":"Building1","rotation":[0.000000141064987246864,0,0,1],"scale":[1,1,1],"translation":[0.0005544614396058,0.0006636589532718,-0.00047404883662]},{"mesh":1,"name":"Cobwebs.001","rotation":[0.000000021855694143369,-0,-0,1],"scale":[1,1,1],"translation":[0.0166993699967861,0.0283598564565182,-0.10844048112631]},{"mesh":2,"name":"Cobwebs.002","rotation":[0.000000021855694143369,0,0,1],"scale":[1,1,1],"translation":[0.0157197378575802,0.0107909152284265,-0.06812813133001]}],"samplers":[{}],"scene":0,"scenes":[{"name":"Root Scene","nodes":[0,1,2]}]}