{"accessors":[{"bufferView":0,"byteOffset":0,"componentType":5123,"count":10434,"type":"SCALAR"},{"bufferView":1,"byteOffset":0,"componentType":5126,"count":7451,"max":[0.0668965205550194,0.0000000416722656382262,0.0308729503303766],"min":[-0.06689652055502,-0.08595678210258,-0.05116175860167],"type":"VEC3"},{"bufferView":2,"byteOffset":0,"componentType":5126,"count":7451,"type":"VEC3"},{"bufferView":3,"byteOffset":0,"componentType":5126,"count":7451,"type":"VEC2"},{"bufferView":4,"byteOffset":0,"componentType":5126,"count":7451,"type":"VEC2"},{"bufferView":5,"byteOffset":0,"componentType":5123,"count":1902,"type":"SCALAR"},{"bufferView":6,"byteOffset":0,"componentType":5126,"count":1335,"max":[0.0328999795019627,-0.07448750734329,-0.00995892472565],"min":[-0.03289997950196,-0.0942397415638,-0.03087297081947],"type":"VEC3"},{"bufferView":7,"byteOffset":0,"componentType":5126,"count":1335,"type":"VEC3"},{"bufferView":8,"byteOffset":0,"componentType":5126,"count":1335,"type":"VEC2"},{"bufferView":9,"byteOffset":0,"componentType":5126,"count":1335,"type":"VEC2"},{"bufferView":10,"byteOffset":0,"componentType":5123,"count":1434,"type":"SCALAR"},{"bufferView":11,"byteOffset":0,"componentType":5126,"count":982,"max":[0.0679931789636612,0.00000000590748250317574,0.0318688452243805],"min":[-0.06799317896366,-0.07577557116747,-0.03186886012554],"type":"VEC3"},{"bufferView":12,"byteOffset":0,"componentType":5126,"count":982,"type":"VEC3"},{"bufferView":13,"byteOffset":0,"componentType":5126,"count":982,"type":"VEC2"},{"bufferView":14,"byteOffset":0,"componentType":5126,"count":982,"type":"VEC2"},{"bufferView":15,"byteOffset":0,"componentType":5123,"count":78,"type":"SCALAR"},{"bufferView":16,"byteOffset":0,"componentType":5126,"count":44,"max":[0.0837718844413757,-0.03485560044646,-0.02829718589783],"min":[0.0652469173073769,-0.03830756992102,-0.02917612530291],"type":"VEC3"},{"bufferView":17,"byteOffset":0,"componentType":5126,"count":44,"type":"VEC3"},{"bufferView":18,"byteOffset":0,"componentType":5126,"count":44,"type":"VEC2"},{"bufferView":19,"byteOffset":0,"componentType":5126,"count":44,"type":"VEC2"},{"bufferView":20,"byteOffset":0,"componentType":5123,"count":516,"type":"SCALAR"},{"bufferView":21,"byteOffset":0,"componentType":5126,"count":268,"max":[0.0844351202249527,0.0000000161112136964903,-0.02963385358453],"min":[-0.06733003258705,-0.03802332282066,-0.05116175860167],"type":"VEC3"},{"bufferView":22,"byteOffset":0,"componentType":5126,"count":268,"type":"VEC3"},{"bufferView":23,"byteOffset":0,"componentType":5126,"count":268,"type":"VEC2"},{"bufferView":24,"byteOffset":0,"componentType":5126,"count":268,"type":"VEC2"},{"bufferView":25,"byteOffset":0,"componentType":5123,"count":1626,"type":"SCALAR"},{"bufferView":26,"byteOffset":0,"componentType":5126,"count":1072,"max":[0.0657998844981194,0.00000000554376855532723,0.029877070337534],"min":[-0.0657998546958,-0.0722094476223,-0.02994782850146],"type":"VEC3"},{"bufferView":27,"byteOffset":0,"componentType":5126,"count":1072,"type":"VEC3"},{"bufferView":28,"byteOffset":0,"componentType":5126,"count":1072,"type":"VEC2"},{"bufferView":29,"byteOffset":0,"componentType":5126,"count":1072,"type":"VEC2"},{"bufferView":30,"byteOffset":0,"componentType":5123,"count":15792,"type":"SCALAR"},{"bufferView":31,"byteOffset":0,"componentType":5126,"count":7886,"max":[0.0608526691794395,-0.01062211021781,-0.03111346811056],"min":[-0.06211661547422,-0.06909064203501,-0.0417712777853],"type":"VEC3"},{"bufferView":32,"byteOffset":0,"componentType":5126,"count":7886,"type":"VEC3"},{"bufferView":33,"byteOffset":0,"componentType":5126,"count":7886,"type":"VEC2"},{"bufferView":34,"byteOffset":0,"componentType":5126,"count":7886,"type":"VEC2"},{"bufferView":35,"byteOffset":0,"componentType":5123,"count":7938,"type":"SCALAR"},{"bufferView":36,"byteOffset":0,"componentType":5126,"count":5427,"max":[0.0668965205550194,-0.00057350762654,0.0308729466050863],"min":[-0.06689652055502,-0.07001607865095,-0.03172396868467],"type":"VEC3"},{"bufferView":37,"byteOffset":0,"componentType":5126,"count":5427,"type":"VEC3"},{"bufferView":38,"byteOffset":0,"componentType":5126,"count":5427,"type":"VEC2"},{"bufferView":39,"byteOffset":0,"componentType":5126,"count":5427,"type":"VEC2"},{"bufferView":40,"byteOffset":0,"componentType":5123,"count":420,"type":"SCALAR"},{"bufferView":41,"byteOffset":0,"componentType":5126,"count":236,"max":[0.0108881630003452,-0.00188317790162,-0.03006868250668],"min":[-0.0199050437659,-0.02629908546805,-0.04097593203187],"type":"VEC3"},{"bufferView":42,"byteOffset":0,"componentType":5126,"count":236,"type":"VEC3"},{"bufferView":43,"byteOffset":0,"componentType":5126,"count":236,"type":"VEC2"},{"bufferView":44,"byteOffset":0,"componentType":5126,"count":236,"type":"VEC2"},{"bufferView":45,"byteOffset":0,"componentType":5123,"count":19764,"type":"SCALAR"},{"bufferView":46,"byteOffset":0,"componentType":5126,"count":10702,"max":[0.0833779349923134,-0.03603804111481,-0.03133517503738],"min":[-0.06528072804213,-0.04650284722447,-0.05083043500781],"type":"VEC3"},{"bufferView":47,"byteOffset":0,"componentType":5126,"count":10702,"type":"VEC3"},{"bufferView":48,"byteOffset":0,"componentType":5126,"count":10702,"type":"VEC2"},{"bufferView":49,"byteOffset":0,"componentType":5126,"count":10702,"type":"VEC2"},{"bufferView":50,"byteOffset":0,"componentType":5123,"count":120,"type":"SCALAR"},{"bufferView":51,"byteOffset":0,"componentType":5126,"count":68,"max":[0.0685393586754799,-0.00100260984618,0.0298035200685263],"min":[-0.06654367595911,-0.07456477731466,-0.03205861896276],"type":"VEC3"},{"bufferView":52,"byteOffset":0,"componentType":5126,"count":68,"type":"VEC3"},{"bufferView":53,"byteOffset":0,"componentType":5126,"count":68,"type":"VEC2"},{"bufferView":54,"byteOffset":0,"componentType":5126,"count":68,"type":"VEC2"},{"bufferView":55,"byteOffset":0,"componentType":5123,"count":684,"type":"SCALAR"},{"bufferView":56,"byteOffset":0,"componentType":5126,"count":268,"max":[0.0647031962871552,-0.01257050037384,0.028881149366498],"min":[-0.06470319628716,-0.06687238812447,-0.03080468997359],"type":"VEC3"},{"bufferView":57,"byteOffset":0,"componentType":5126,"count":268,"type":"VEC3"},{"bufferView":58,"byteOffset":0,"componentType":5126,"count":268,"type":"VEC2"},{"bufferView":59,"byteOffset":0,"componentType":5126,"count":268,"type":"VEC2"},{"bufferView":60,"byteOffset":0,"componentType":5123,"count":288,"type":"SCALAR"},{"bufferView":61,"byteOffset":0,"componentType":5126,"count":128,"max":[0.054548729211092,-0.01269664615393,0.028881149366498],"min":[-0.05454872921109,-0.06674312055111,0.028781034052372],"type":"VEC3"},{"bufferView":62,"byteOffset":0,"componentType":5126,"count":128,"type":"VEC3"},{"bufferView":63,"byteOffset":0,"componentType":5126,"count":128,"type":"VEC2"},{"bufferView":64,"byteOffset":0,"componentType":5126,"count":128,"type":"VEC2"},{"bufferView":65,"byteOffset":0,"componentType":5123,"count":180,"type":"SCALAR"},{"bufferView":66,"byteOffset":0,"componentType":5126,"count":112,"max":[0.0194499213248491,-0.02620247378945,-0.02562361583114],"min":[-0.01922692172229,-0.09073144942522,-0.03303247317672],"type":"VEC3"},{"bufferView":67,"byteOffset":0,"componentType":5126,"count":112,"type":"VEC3"},{"bufferView":68,"byteOffset":0,"componentType":5126,"count":112,"type":"VEC2"},{"bufferView":69,"byteOffset":0,"componentType":5126,"count":112,"type":"VEC2"},{"bufferView":70,"byteOffset":0,"componentType":5123,"count":960,"type":"SCALAR"},{"bufferView":71,"byteOffset":0,"componentType":5126,"count":608,"max":[0.0843518823385239,0.00015131753752939,0.014251864515245],"min":[0.0679430589079857,-0.04088013246655,-0.03163480386138],"type":"VEC3"},{"bufferView":72,"byteOffset":0,"componentType":5126,"count":608,"type":"VEC3"},{"bufferView":73,"byteOffset":0,"componentType":5126,"count":608,"type":"VEC2"},{"bufferView":74,"byteOffset":0,"componentType":5126,"count":608,"type":"VEC2"},{"bufferView":75,"byteOffset":0,"componentType":5125,"count":1669137,"type":"SCALAR"},{"bufferView":76,"byteOffset":0,"componentType":5126,"count":288639,"max":[0.0677142813801765,0.0000100011920949328,0.0300548579543829],"min":[-0.07510048896074,-0.07455682009459,-0.02283870242536],"type":"VEC3"},{"bufferView":77,"byteOffset":0,"componentType":5126,"count":288639,"type":"VEC3"},{"bufferView":78,"byteOffset":0,"componentType":5126,"count":288639,"type":"VEC2"},{"bufferView":79,"byteOffset":0,"componentType":5126,"count":288639,"type":"VEC2"}],"asset":{"generator":"FBX2glTF v0.13.1","version":"2.0"},"bufferViews":[{"buffer":0,"byteLength":20868,"byteOffset":0,"target":34963},{"buffer":0,"byteLength":89412,"byteOffset":20868,"target":34962},{"buffer":0,"byteLength":89412,"byteOffset":110280,"target":34962},{"buffer":0,"byteLength":59608,"byteOffset":199692,"target":34962},{"buffer":0,"byteLength":59608,"byteOffset":259300,"target":34962},{"buffer":0,"byteLength":3804,"byteOffset":318908,"target":34963},{"buffer":0,"byteLength":16020,"byteOffset":322712,"target":34962},{"buffer":0,"byteLength":16020,"byteOffset":338732,"target":34962},{"buffer":0,"byteLength":10680,"byteOffset":354752,"target":34962},{"buffer":0,"byteLength":10680,"byteOffset":365432,"target":34962},{"buffer":0,"byteLength":2868,"byteOffset":376112,"target":34963},{"buffer":0,"byteLength":11784,"byteOffset":378980,"target":34962},{"buffer":0,"byteLength":11784,"byteOffset":390764,"target":34962},{"buffer":0,"byteLength":7856,"byteOffset":402548,"target":34962},{"buffer":0,"byteLength":7856,"byteOffset":410404,"target":34962},{"buffer":0,"byteLength":156,"byteOffset":418260,"target":34963},{"buffer":0,"byteLength":528,"byteOffset":418416,"target":34962},{"buffer":0,"byteLength":528,"byteOffset":418944,"target":34962},{"buffer":0,"byteLength":352,"byteOffset":419472,"target":34962},{"buffer":0,"byteLength":352,"byteOffset":419824,"target":34962},{"buffer":0,"byteLength":1032,"byteOffset":420176,"target":34963},{"buffer":0,"byteLength":3216,"byteOffset":421208,"target":34962},{"buffer":0,"byteLength":3216,"byteOffset":424424,"target":34962},{"buffer":0,"byteLength":2144,"byteOffset":427640,"target":34962},{"buffer":0,"byteLength":2144,"byteOffset":429784,"target":34962},{"buffer":0,"byteLength":3252,"byteOffset":431928,"target":34963},{"buffer":0,"byteLength":12864,"byteOffset":435180,"target":34962},{"buffer":0,"byteLength":12864,"byteOffset":448044,"target":34962},{"buffer":0,"byteLength":8576,"byteOffset":460908,"target":34962},{"buffer":0,"byteLength":8576,"byteOffset":469484,"target":34962},{"buffer":0,"byteLength":31584,"byteOffset":478060,"target":34963},{"buffer":0,"byteLength":94632,"byteOffset":509644,"target":34962},{"buffer":0,"byteLength":94632,"byteOffset":604276,"target":34962},{"buffer":0,"byteLength":63088,"byteOffset":698908,"target":34962},{"buffer":0,"byteLength":63088,"byteOffset":761996,"target":34962},{"buffer":0,"byteLength":15876,"byteOffset":825084,"target":34963},{"buffer":0,"byteLength":65124,"byteOffset":840960,"target":34962},{"buffer":0,"byteLength":65124,"byteOffset":906084,"target":34962},{"buffer":0,"byteLength":43416,"byteOffset":971208,"target":34962},{"buffer":0,"byteLength":43416,"byteOffset":1014624,"target":34962},{"buffer":0,"byteLength":840,"byteOffset":1058040,"target":34963},{"buffer":0,"byteLength":2832,"byteOffset":1058880,"target":34962},{"buffer":0,"byteLength":2832,"byteOffset":1061712,"target":34962},{"buffer":0,"byteLength":1888,"byteOffset":1064544,"target":34962},{"buffer":0,"byteLength":1888,"byteOffset":1066432,"target":34962},{"buffer":0,"byteLength":39528,"byteOffset":1068320,"target":34963},{"buffer":0,"byteLength":128424,"byteOffset":1107848,"target":34962},{"buffer":0,"byteLength":128424,"byteOffset":1236272,"target":34962},{"buffer":0,"byteLength":85616,"byteOffset":1364696,"target":34962},{"buffer":0,"byteLength":85616,"byteOffset":1450312,"target":34962},{"buffer":0,"byteLength":240,"byteOffset":1535928,"target":34963},{"buffer":0,"byteLength":816,"byteOffset":1536168,"target":34962},{"buffer":0,"byteLength":816,"byteOffset":1536984,"target":34962},{"buffer":0,"byteLength":544,"byteOffset":1537800,"target":34962},{"buffer":0,"byteLength":544,"byteOffset":1538344,"target":34962},{"buffer":0,"byteLength":1368,"byteOffset":1538888,"target":34963},{"buffer":0,"byteLength":3216,"byteOffset":1540256,"target":34962},{"buffer":0,"byteLength":3216,"byteOffset":1543472,"target":34962},{"buffer":0,"byteLength":2144,"byteOffset":1546688,"target":34962},{"buffer":0,"byteLength":2144,"byteOffset":1548832,"target":34962},{"buffer":0,"byteLength":576,"byteOffset":1550976,"target":34963},{"buffer":0,"byteLength":1536,"byteOffset":1551552,"target":34962},{"buffer":0,"byteLength":1536,"byteOffset":1553088,"target":34962},{"buffer":0,"byteLength":1024,"byteOffset":1554624,"target":34962},{"buffer":0,"byteLength":1024,"byteOffset":1555648,"target":34962},{"buffer":0,"byteLength":360,"byteOffset":1556672,"target":34963},{"buffer":0,"byteLength":1344,"byteOffset":1557032,"target":34962},{"buffer":0,"byteLength":1344,"byteOffset":1558376,"target":34962},{"buffer":0,"byteLength":896,"byteOffset":1559720,"target":34962},{"buffer":0,"byteLength":896,"byteOffset":1560616,"target":34962},{"buffer":0,"byteLength":1920,"byteOffset":1561512,"target":34963},{"buffer":0,"byteLength":7296,"byteOffset":1563432,"target":34962},{"buffer":0,"byteLength":7296,"byteOffset":1570728,"target":34962},{"buffer":0,"byteLength":4864,"byteOffset":1578024,"target":34962},{"buffer":0,"byteLength":4864,"byteOffset":1582888,"target":34962},{"buffer":0,"byteLength":6676548,"byteOffset":1587752,"target":34963},{"buffer":0,"byteLength":3463668,"byteOffset":8264300,"target":34962},{"buffer":0,"byteLength":3463668,"byteOffset":11727968,"target":34962},{"buffer":0,"byteLength":2309112,"byteOffset":15191636,"target":34962},{"buffer":0,"byteLength":2309112,"byteOffset":17500748,"target":34962}],"buffers":[{"byteLength":19809860,"uri":"building2.bin"}],"materials":[{"alphaMode":"OPAQUE","doubleSided":false,"extras":{"fromFBX":{"isTruePBR":false,"shadingModel":"Phong"}},"name":"wallsinside.001","pbrMetallicRoughness":{"baseColorFactor":[0.800000011920929,0.800000011920929,0.800000011920929,1],"metallicFactor":0.400000005960464,"roughnessFactor":0.272165536880493}},{"alphaMode":"OPAQUE","doubleSided":false,"extras":{"fromFBX":{"isTruePBR":false,"shadingModel":"Phong"}},"name":"panel1.001","pbrMetallicRoughness":{"baseColorFactor":[0.800000011920929,0.800000011920929,0.800000011920929,1],"metallicFactor":0.400000005960464,"roughnessFactor":0.272165536880493}},{"alphaMode":"OPAQUE","doubleSided":false,"extras":{"fromFBX":{"isTruePBR":false,"shadingModel":"Phong"}},"name":"beams.001","pbrMetallicRoughness":{"baseColorFactor":[0.800000011920929,0.800000011920929,0.800000011920929,1],"metallicFactor":0.400000005960464,"roughnessFactor":0.272165536880493}},{"alphaMode":"OPAQUE","doubleSided":false,"extras":{"fromFBX":{"isTruePBR":false,"shadingModel":"Phong"}},"name":"floor3.001","pbrMetallicRoughness":{"baseColorFactor":[0.800000011920929,0.800000011920929,0.800000011920929,1],"metallicFactor":0.400000005960464,"roughnessFactor":0.272165536880493}},{"alphaMode":"OPAQUE","doubleSided":false,"extras":{"fromFBX":{"isTruePBR":false,"shadingModel":"Phong"}},"name":"floor2.001","pbrMetallicRoughness":{"baseColorFactor":[0.800000011920929,0.800000011920929,0.800000011920929,1],"metallicFactor":0.400000005960464,"roughnessFactor":0.272165536880493}},{"alphaMode":"OPAQUE","doubleSided":false,"extras":{"fromFBX":{"isTruePBR":false,"shadingModel":"Phong"}},"name":"wallsoutside.001","pbrMetallicRoughness":{"baseColorFactor":[0.800000011920929,0.800000011920929,0.800000011920929,1],"metallicFactor":0.400000005960464,"roughnessFactor":0.272165536880493}},{"alphaMode":"OPAQUE","doubleSided":false,"extras":{"fromFBX":{"isTruePBR":false,"shadingModel":"Phong"}},"name":"shutters.001","pbrMetallicRoughness":{"baseColorFactor":[0.800000011920929,0.800000011920929,0.800000011920929,1],"metallicFactor":0.400000005960464,"roughnessFactor":0.272165536880493}},{"alphaMode":"OPAQUE","doubleSided":false,"extras":{"fromFBX":{"isTruePBR":false,"shadingModel":"Phong"}},"name":"frames.001","pbrMetallicRoughness":{"baseColorFactor":[0.800000011920929,0.800000011920929,0.800000011920929,1],"metallicFactor":0.400000005960464,"roughnessFactor":0.272165536880493}},{"alphaMode":"OPAQUE","doubleSided":false,"extras":{"fromFBX":{"isTruePBR":false,"shadingModel":"Phong"}},"name":"doors.001","pbrMetallicRoughness":{"baseColorFactor":[0.800000011920929,0.800000011920929,0.800000011920929,1],"metallicFactor":0.400000005960464,"roughnessFactor":0.272165536880493}},{"alphaMode":"OPAQUE","doubleSided":false,"extras":{"fromFBX":{"isTruePBR":false,"shadingModel":"Phong"}},"name":"rails.001","pbrMetallicRoughness":{"baseColorFactor":[0.800000011920929,0.800000011920929,0.800000011920929,1],"metallicFactor":0.400000005960464,"roughnessFactor":0.272165536880493}},{"alphaMode":"OPAQUE","doubleSided":false,"extras":{"fromFBX":{"isTruePBR":false,"shadingModel":"Phong"}},"name":"floor1.001","pbrMetallicRoughness":{"baseColorFactor":[0.800000011920929,0.800000011920929,0.800000011920929,1],"metallicFactor":0.400000005960464,"roughnessFactor":0.272165536880493}},{"alphaMode":"OPAQUE","doubleSided":false,"extras":{"fromFBX":{"isTruePBR":false,"shadingModel":"Phong"}},"name":"panel2.001","pbrMetallicRoughness":{"baseColorFactor":[0.800000011920929,0.800000011920929,0.800000011920929,1],"metallicFactor":0.400000005960464,"roughnessFactor":0.272165536880493}},{"alphaMode":"OPAQUE","doubleSided":false,"extras":{"fromFBX":{"isTruePBR":false,"shadingModel":"Phong"}},"name":"panel3.001","pbrMetallicRoughness":{"baseColorFactor":[0.800000011920929,0.800000011920929,0.800000011920929,1],"metallicFactor":0.400000005960464,"roughnessFactor":0.272165536880493}},{"alphaMode":"OPAQUE","doubleSided":false,"extras":{"fromFBX":{"isTruePBR":false,"shadingModel":"Phong"}},"name":"sign.001","pbrMetallicRoughness":{"baseColorFactor":[0.800000011920929,0.800000011920929,0.800000011920929,1],"metallicFactor":0.400000005960464,"roughnessFactor":0.272165536880493}},{"alphaMode":"OPAQUE","doubleSided":false,"extras":{"fromFBX":{"isTruePBR":false,"shadingModel":"Phong"}},"name":"stairs.001","pbrMetallicRoughness":{"baseColorFactor":[0.800000011920929,0.800000011920929,0.800000011920929,1],"metallicFactor":0.400000005960464,"roughnessFactor":0.272165536880493}},{"alphaMode":"OPAQUE","doubleSided":false,"extras":{"fromFBX":{"isTruePBR":false,"shadingModel":"Phong"}},"name":"Web.006","pbrMetallicRoughness":{"baseColorFactor":[1,1,1,1],"metallicFactor":0.400000005960464,"roughnessFactor":0.272165536880493}}],"meshes":[{"name":"Building2","primitives":[{"attributes":{"NORMAL":2,"POSITION":1,"TEXCOORD_0":3,"TEXCOORD_1":4},"indices":0,"material":0,"mode":4},{"attributes":{"NORMAL":7,"POSITION":6,"TEXCOORD_0":8,"TEXCOORD_1":9},"indices":5,"material":1,"mode":4},{"attributes":{"NORMAL":12,"POSITION":11,"TEXCOORD_0":13,"TEXCOORD_1":14},"indices":10,"material":2,"mode":4},{"attributes":{"NORMAL":17,"POSITION":16,"TEXCOORD_0":18,"TEXCOORD_1":19},"indices":15,"material":3,"mode":4},{"attributes":{"NORMAL":22,"POSITION":21,"TEXCOORD_0":23,"TEXCOORD_1":24},"indices":20,"material":4,"mode":4},{"attributes":{"NORMAL":27,"POSITION":26,"TEXCOORD_0":28,"TEXCOORD_1":29},"indices":25,"material":5,"mode":4},{"attributes":{"NORMAL":32,"POSITION":31,"TEXCOORD_0":33,"TEXCOORD_1":34},"indices":30,"material":6,"mode":4},{"attributes":{"NORMAL":37,"POSITION":36,"TEXCOORD_0":38,"TEXCOORD_1":39},"indices":35,"material":7,"mode":4},{"attributes":{"NORMAL":42,"POSITION":41,"TEXCOORD_0":43,"TEXCOORD_1":44},"indices":40,"material":8,"mode":4},{"attributes":{"NORMAL":47,"POSITION":46,"TEXCOORD_0":48,"TEXCOORD_1":49},"indices":45,"material":9,"mode":4},{"attributes":{"NORMAL":52,"POSITION":51,"TEXCOORD_0":53,"TEXCOORD_1":54},"indices":50,"material":10,"mode":4},{"attributes":{"NORMAL":57,"POSITION":56,"TEXCOORD_0":58,"TEXCOORD_1":59},"indices":55,"material":11,"mode":4},{"attributes":{"NORMAL":62,"POSITION":61,"TEXCOORD_0":63,"TEXCOORD_1":64},"indices":60,"material":12,"mode":4},{"attributes":{"NORMAL":67,"POSITION":66,"TEXCOORD_0":68,"TEXCOORD_1":69},"indices":65,"material":13,"mode":4},{"attributes":{"NORMAL":72,"POSITION":71,"TEXCOORD_0":73,"TEXCOORD_1":74},"indices":70,"material":14,"mode":4}]},{"name":"Cobwebs","primitives":[{"attributes":{"NORMAL":77,"POSITION":76,"TEXCOORD_0":78,"TEXCOORD_1":79},"indices":75,"material":15,"mode":4}]}],"nodes":[{"mesh":0,"name":"Building2","rotation":[0.000000021855694143369,0,0,1],"scale":[1,1,1],"translation":[0,0,0]},{"mesh":1,"name":"Cobwebs","rotation":[0.000000021855694143369,0,0,1],"scale":[0.944023847579956,1,1],"translation":[0.00267785461619496,0,0]}],"samplers":[{}],"scene":0,"scenes":[{"name":"Root Scene","nodes":[0,1]}]}