{"accessors":[{"bufferView":0,"byteOffset":0,"componentType":5123,"count":993,"type":"SCALAR"},{"bufferView":1,"byteOffset":0,"componentType":5126,"count":533,"max":[0.00304711237549782,0.022756977006793,0.00331268808804452],"min":[-0.00372664211318,-0.00000000036799,-0.00299341813661],"type":"VEC3"},{"bufferView":2,"byteOffset":0,"componentType":5126,"count":533,"type":"VEC3"},{"bufferView":3,"byteOffset":0,"componentType":5126,"count":533,"type":"VEC2"}],"asset":{"generator":"FBX2glTF v0.13.1","version":"2.0"},"bufferViews":[{"buffer":0,"byteLength":1986,"byteOffset":0,"target":34963},{"buffer":0,"byteLength":6396,"byteOffset":1988,"target":34962},{"buffer":0,"byteLength":6396,"byteOffset":8384,"target":34962},{"buffer":0,"byteLength":4264,"byteOffset":14780,"target":34962}],"buffers":[{"byteLength":19044,"uri":"Cactus1.bin"}],"materials":[{"alphaMode":"OPAQUE","doubleSided":false,"extras":{"fromFBX":{"isTruePBR":false,"shadingModel":"Phong"}},"name":"cactus.002","pbrMetallicRoughness":{"baseColorFactor":[0.800000011920929,0.800000011920929,0.800000011920929,0],"metallicFactor":0.400000005960464,"roughnessFactor":0.415087103843689}}],"meshes":[{"name":"Cactus1","primitives":[{"attributes":{"NORMAL":2,"POSITION":1,"TEXCOORD_0":3},"indices":0,"material":0,"mode":4}]}],"nodes":[{"mesh":0,"name":"Cactus1","rotation":[0.000000141064987246864,0,0,1],"scale":[1,1,1],"translation":[-0.04074909538031,-0,-0.03076457418501]}],"samplers":[{}],"scene":0,"scenes":[{"name":"Root Scene","nodes":[0]}]}