{"accessors":[{"bufferView":0,"byteOffset":0,"componentType":5123,"count":360,"type":"SCALAR"},{"bufferView":1,"byteOffset":0,"componentType":5126,"count":227,"max":[0.00283662346191704,0.0342124700546265,0.00465315626934171],"min":[-0.00306232809089,-0.00000440144777,-0.00424772500992],"type":"VEC3"},{"bufferView":2,"byteOffset":0,"componentType":5126,"count":227,"type":"VEC3"},{"bufferView":3,"byteOffset":0,"componentType":5126,"count":227,"type":"VEC2"}],"asset":{"generator":"FBX2glTF v0.13.1","version":"2.0"},"bufferViews":[{"buffer":0,"byteLength":720,"byteOffset":0,"target":34963},{"buffer":0,"byteLength":2724,"byteOffset":720,"target":34962},{"buffer":0,"byteLength":2724,"byteOffset":3444,"target":34962},{"buffer":0,"byteLength":1816,"byteOffset":6168,"target":34962}],"buffers":[{"byteLength":7984,"uri":"Cactus2.bin"}],"materials":[{"alphaMode":"OPAQUE","doubleSided":false,"extras":{"fromFBX":{"isTruePBR":false,"shadingModel":"Phong"}},"name":"cactus.001","pbrMetallicRoughness":{"baseColorFactor":[0.800000011920929,0.800000011920929,0.800000011920929,0],"metallicFactor":0.400000005960464,"roughnessFactor":0.415087103843689}}],"meshes":[{"name":"Cactus2","primitives":[{"attributes":{"NORMAL":2,"POSITION":1,"TEXCOORD_0":3},"indices":0,"material":0,"mode":4}]}],"nodes":[{"mesh":0,"name":"Cactus2","rotation":[0.000000141064987246864,0,0,1],"scale":[1,1,1],"translation":[-0.0011020230595,-0.00048996688565,-0.00025651336182]}],"samplers":[{}],"scene":0,"scenes":[{"name":"Root Scene","nodes":[0]}]}