{"accessors":[{"bufferView":0,"byteOffset":0,"componentType":5123,"count":2469,"type":"SCALAR"},{"bufferView":1,"byteOffset":0,"componentType":5126,"count":1854,"max":[0.715079188346863,2.48107719421387,0.517111480236053],"min":[-0.71311783790588,-2.34695219993591,-0.52142095565796],"type":"VEC3"},{"bufferView":2,"byteOffset":0,"componentType":5126,"count":1854,"type":"VEC3"},{"bufferView":3,"byteOffset":0,"componentType":5126,"count":1854,"type":"VEC2"}],"asset":{"generator":"FBX2glTF v0.13.1","version":"2.0"},"bufferViews":[{"buffer":0,"byteLength":4938,"byteOffset":0,"target":34963},{"buffer":0,"byteLength":22248,"byteOffset":4940,"target":34962},{"buffer":0,"byteLength":22248,"byteOffset":27188,"target":34962},{"buffer":0,"byteLength":14832,"byteOffset":49436,"target":34962}],"buffers":[{"byteLength":64268,"uri":"Cloud1.bin"}],"images":[{"name":"RG_Palette","uri":"RG_Palette.png"}],"materials":[{"alphaMode":"OPAQUE","doubleSided":false,"extras":{"fromFBX":{"isTruePBR":false,"shadingModel":"Phong"}},"name":"CloudMat","pbrMetallicRoughness":{"baseColorFactor":[1,1,1,1],"baseColorTexture":{"index":0,"texCoord":0},"metallicFactor":0.400000005960464,"roughnessFactor":0.707106709480286}}],"meshes":[{"name":"cloud1","primitives":[{"attributes":{"NORMAL":2,"POSITION":1,"TEXCOORD_0":3},"indices":0,"material":0,"mode":4}]}],"nodes":[{"mesh":0,"name":"cloud1","rotation":[0.000000021855694143369,0,0,1],"scale":[0.100000001490116,0.100000001490116,0.100000001490116],"translation":[0,-0.00107285112608,0.0000000000468958136212727]}],"samplers":[{}],"scene":0,"scenes":[{"name":"Root Scene","nodes":[0]}],"textures":[{"name":"base_color_texture","sampler":0,"source":0}]}