{"accessors":[{"bufferView":0,"byteOffset":0,"componentType":5123,"count":636,"type":"SCALAR"},{"bufferView":1,"byteOffset":0,"componentType":5126,"count":366,"max":[0.00999355502426624,0.00998959317803383,0.0202042534947395],"min":[-0.01061387360096,-0.0100315567106,-0.00001061223429],"type":"VEC3"},{"bufferView":2,"byteOffset":0,"componentType":5126,"count":366,"type":"VEC3"},{"bufferView":3,"byteOffset":0,"componentType":5126,"count":366,"type":"VEC2"}],"asset":{"generator":"FBX2glTF v0.13.1","version":"2.0"},"bufferViews":[{"buffer":0,"byteLength":1272,"byteOffset":0,"target":34963},{"buffer":0,"byteLength":4392,"byteOffset":1272,"target":34962},{"buffer":0,"byteLength":4392,"byteOffset":5664,"target":34962},{"buffer":0,"byteLength":2928,"byteOffset":10056,"target":34962}],"buffers":[{"byteLength":12984,"uri":"Crate.bin"}],"images":[{"name":"Crate Base Color","uri":"Crate Base Color.png"}],"materials":[{"alphaMode":"OPAQUE","doubleSided":false,"extras":{"fromFBX":{"isTruePBR":false,"shadingModel":"Phong"}},"name":"CreateMat","pbrMetallicRoughness":{"baseColorFactor":[1,1,1,1],"baseColorTexture":{"index":0,"texCoord":0},"metallicFactor":0.400000005960464,"roughnessFactor":0.229415729641914}}],"meshes":[{"name":"Crate","primitives":[{"attributes":{"NORMAL":2,"POSITION":1,"TEXCOORD_0":3},"indices":0,"material":0,"mode":4}]}],"nodes":[{"mesh":0,"name":"Crate","rotation":[0.000000021855694143369,0,0,1],"scale":[0.534094870090485,0.534094870090485,0.534094870090485],"translation":[0.000000000298023217215615,0,-0.00000000238419]}],"samplers":[{}],"scene":0,"scenes":[{"name":"Root Scene","nodes":[0]}],"textures":[{"name":"base_color_texture","sampler":0,"source":0}]}