{"accessors":[{"bufferView":0,"byteOffset":0,"componentType":5123,"count":114,"type":"SCALAR"},{"bufferView":1,"byteOffset":0,"componentType":5126,"count":58,"max":[6126.0498046875,397.336547851562,5300.86865234375],"min":[-5835.8330078125,4.83656311035156,-3537.27807617188],"type":"VEC3"},{"bufferView":2,"byteOffset":0,"componentType":5126,"count":58,"type":"VEC3"},{"bufferView":3,"byteOffset":0,"componentType":5126,"count":58,"type":"VEC4"},{"bufferView":4,"byteOffset":0,"componentType":5126,"count":58,"type":"VEC2"}],"asset":{"generator":"FBX2glTF v0.13.1","version":"2.0"},"bufferViews":[{"buffer":0,"byteLength":228,"byteOffset":0,"target":34963},{"buffer":0,"byteLength":696,"byteOffset":228,"target":34962},{"buffer":0,"byteLength":696,"byteOffset":924,"target":34962},{"buffer":0,"byteLength":928,"byteOffset":1620,"target":34962},{"buffer":0,"byteLength":464,"byteOffset":2548,"target":34962}],"buffers":[{"byteLength":3012,"uri":"Distant_Backgtound.bin"}],"materials":[{"alphaMode":"OPAQUE","doubleSided":false,"extras":{"fromFBX":{"isTruePBR":false,"shadingModel":"Lambert"}},"name":"bg_mountains","pbrMetallicRoughness":{"baseColorFactor":[1,1,1,1],"metallicFactor":0.200000002980232,"roughnessFactor":0.800000011920929}}],"meshes":[{"name":"Mesh","primitives":[{"attributes":{"NORMAL":2,"POSITION":1,"TANGENT":3,"TEXCOORD_0":4},"indices":0,"material":0,"mode":4}]}],"nodes":[{"children":[1],"name":"Distant_Backgtound","rotation":[0,0,0,1],"scale":[1,1,1],"translation":[0,0,0]},{"mesh":0,"name":"Mesh 1","rotation":[0,0,0,1],"scale":[1,1,1],"translation":[0,0,0]}],"samplers":[{}],"scene":0,"scenes":[{"name":"Root Scene","nodes":[0]}]}