{"accessors":[{"bufferView":0,"byteOffset":0,"componentType":5123,"count":10224,"type":"SCALAR"},{"bufferView":1,"byteOffset":0,"componentType":5126,"count":5605,"max":[0.131825089454651,-0.00174855347723,0.0843444690108299],"min":[-0.18397814035416,-0.24138876795769,-0.04652766138315],"type":"VEC3"},{"bufferView":2,"byteOffset":0,"componentType":5126,"count":5605,"type":"VEC3"},{"bufferView":3,"byteOffset":0,"componentType":5126,"count":5605,"type":"VEC2"}],"asset":{"generator":"FBX2glTF v0.13.1","version":"2.0"},"bufferViews":[{"buffer":0,"byteLength":20448,"byteOffset":0,"target":34963},{"buffer":0,"byteLength":67260,"byteOffset":20448,"target":34962},{"buffer":0,"byteLength":67260,"byteOffset":87708,"target":34962},{"buffer":0,"byteLength":44840,"byteOffset":154968,"target":34962}],"buffers":[{"byteLength":199808,"uri":"Fence4.bin"}],"images":[{"name":"ImphenziaPalette01-256-Gradient","uri":"ImphenziaPalette01-256-Gradient.png"}],"materials":[{"alphaMode":"OPAQUE","doubleSided":false,"extras":{"fromFBX":{"isTruePBR":false,"shadingModel":"Phong"}},"name":"Material.022","pbrMetallicRoughness":{"baseColorFactor":[1,1,1,1],"baseColorTexture":{"index":0,"texCoord":0},"metallicFactor":0.400000005960464,"roughnessFactor":1}}],"meshes":[{"name":"Cube.001","primitives":[{"attributes":{"NORMAL":2,"POSITION":1,"TEXCOORD_0":3},"indices":0,"material":0,"mode":4}]}],"nodes":[{"mesh":0,"name":"Cube.001","rotation":[0.000000021855694143369,0,0,1],"scale":[0.249999985098839,0.249999985098839,0.249999970197678],"translation":[0.00000000059604643443123,0.0000000000372529021519519,0.000000000298023217215615]}],"samplers":[{}],"scene":0,"scenes":[{"name":"Root Scene","nodes":[0]}],"textures":[{"name":"base_color_texture","sampler":0,"source":0}]}