{"accessors":[{"bufferView":0,"byteOffset":0,"componentType":5123,"count":1956,"type":"SCALAR"},{"bufferView":1,"byteOffset":0,"componentType":5126,"count":1531,"max":[0.0304088685661554,0.00856109708547592,0.0217273440212011],"min":[-0.01229029987007,0.0000287461280095158,0.00116930576041341],"type":"VEC3"},{"bufferView":2,"byteOffset":0,"componentType":5126,"count":1531,"type":"VEC3"},{"bufferView":3,"byteOffset":0,"componentType":5126,"count":1531,"type":"VEC2"}],"asset":{"generator":"FBX2glTF v0.13.1","version":"2.0"},"bufferViews":[{"buffer":0,"byteLength":3912,"byteOffset":0,"target":34963},{"buffer":0,"byteLength":18372,"byteOffset":3912,"target":34962},{"buffer":0,"byteLength":18372,"byteOffset":22284,"target":34962},{"buffer":0,"byteLength":12248,"byteOffset":40656,"target":34962}],"buffers":[{"byteLength":52904,"uri":"Graves.bin"}],"images":[{"name":"cemetery_None_Normal","uri":"cemetery_None_Normal.png"},{"name":"cemetery_None_BaseColor","uri":"cemetery_None_BaseColor.png"}],"materials":[{"alphaMode":"OPAQUE","doubleSided":false,"extras":{"fromFBX":{"isTruePBR":false,"shadingModel":"Phong"}},"name":"None","normalTexture":{"index":0,"texCoord":0},"pbrMetallicRoughness":{"baseColorFactor":[1,1,1,1],"baseColorTexture":{"index":1,"texCoord":0},"metallicFactor":0.400000005960464,"roughnessFactor":0.186410933732986}}],"meshes":[{"name":"Graves","primitives":[{"attributes":{"NORMAL":2,"POSITION":1,"TEXCOORD_0":3},"indices":0,"material":0,"mode":4}]}],"nodes":[{"mesh":0,"name":"Graves","rotation":[0.0000000814603424714733,0,0,1],"scale":[1,1,1],"translation":[0,-0.00012203277583,0]}],"samplers":[{}],"scene":0,"scenes":[{"name":"Root Scene","nodes":[0]}],"textures":[{"name":"normalmap_texture","sampler":0,"source":0},{"name":"base_color_texture","sampler":0,"source":1}]}