{"accessors":[{"bufferView":0,"byteOffset":0,"componentType":5123,"count":12360,"type":"SCALAR"},{"bufferView":1,"byteOffset":0,"componentType":5126,"count":7944,"max":[0.049009196460247,0.182847633957863,0.0465010330080986],"min":[0.0252478625625372,-0.04962944984436,-0.03716157004237],"type":"VEC3"},{"bufferView":2,"byteOffset":0,"componentType":5126,"count":7944,"type":"VEC3"},{"bufferView":3,"byteOffset":0,"componentType":5126,"count":7944,"type":"VEC2"}],"asset":{"generator":"FBX2glTF v0.13.1","version":"2.0"},"bufferViews":[{"buffer":0,"byteLength":24720,"byteOffset":0,"target":34963},{"buffer":0,"byteLength":95328,"byteOffset":24720,"target":34962},{"buffer":0,"byteLength":95328,"byteOffset":120048,"target":34962},{"buffer":0,"byteLength":63552,"byteOffset":215376,"target":34962}],"buffers":[{"byteLength":278928,"uri":"Logs.bin"}],"images":[{"name":"ImphenziaPalette01-256-Gradient","uri":"ImphenziaPalette01-256-Gradient.png"}],"materials":[{"alphaMode":"OPAQUE","doubleSided":false,"extras":{"fromFBX":{"isTruePBR":false,"shadingModel":"Phong"}},"name":"Material.018","pbrMetallicRoughness":{"baseColorFactor":[1,1,1,1],"baseColorTexture":{"index":0,"texCoord":0},"metallicFactor":0.400000005960464,"roughnessFactor":1}}],"meshes":[{"name":"Cube.001","primitives":[{"attributes":{"NORMAL":2,"POSITION":1,"TEXCOORD_0":3},"indices":0,"material":0,"mode":4}]}],"nodes":[{"mesh":0,"name":"Cube.001","rotation":[0.000000021855694143369,0,0,1],"scale":[0.249999985098839,0.249999985098839,0.249999970197678],"translation":[-0.00887858588248,0.0474896468222141,0.00617359019815922]}],"samplers":[{}],"scene":0,"scenes":[{"name":"Root Scene","nodes":[0]}],"textures":[{"name":"base_color_texture","sampler":0,"source":0}]}