{"accessors":[{"bufferView":0,"byteOffset":0,"componentType":5123,"count":696,"type":"SCALAR"},{"bufferView":1,"byteOffset":0,"componentType":5126,"count":648,"max":[0.00421277014538646,0.00622346624732018,0.00546440901234746],"min":[-0.00684121763334,0.00000272691249847412,-0.00648134946823],"type":"VEC3"},{"bufferView":2,"byteOffset":0,"componentType":5126,"count":648,"type":"VEC3"},{"bufferView":3,"byteOffset":0,"componentType":5126,"count":648,"type":"VEC2"}],"asset":{"generator":"FBX2glTF v0.13.1","version":"2.0"},"bufferViews":[{"buffer":0,"byteLength":1392,"byteOffset":0,"target":34963},{"buffer":0,"byteLength":7776,"byteOffset":1392,"target":34962},{"buffer":0,"byteLength":7776,"byteOffset":9168,"target":34962},{"buffer":0,"byteLength":5184,"byteOffset":16944,"target":34962}],"buffers":[{"byteLength":22128,"uri":"oxskull.bin"}],"materials":[{"alphaMode":"OPAQUE","doubleSided":false,"extras":{"fromFBX":{"isTruePBR":false,"shadingModel":"Phong"}},"name":"Material_standard","pbrMetallicRoughness":{"baseColorFactor":[0.800000011920929,0.800000011920929,0.800000011920929,0],"metallicFactor":0.400000005960464,"roughnessFactor":0.302864044904709}}],"meshes":[{"name":"Skull","primitives":[{"attributes":{"NORMAL":2,"POSITION":1,"TEXCOORD_0":3},"indices":0,"material":0,"mode":4}]}],"nodes":[{"mesh":0,"name":"Skull","rotation":[0.000000141064987246864,0,0,1],"scale":[1,1,1],"translation":[0.00116246694233268,-0.00114737742115,-0.00121765746735]}],"samplers":[{}],"scene":0,"scenes":[{"name":"Root Scene","nodes":[0]}]}