{"accessors":[{"bufferView":0,"byteOffset":0,"componentType":5123,"count":1608,"type":"SCALAR"},{"bufferView":1,"byteOffset":0,"componentType":5126,"count":870,"max":[1.88896036148071,1.5214124917984,2.64490866661072],"min":[-2.05487966537476,-0.31786453723907,-2.51029968261719],"type":"VEC3"},{"bufferView":2,"byteOffset":0,"componentType":5126,"count":870,"type":"VEC3"},{"bufferView":3,"byteOffset":0,"componentType":5126,"count":870,"type":"VEC4"},{"bufferView":4,"byteOffset":0,"componentType":5126,"count":870,"type":"VEC2"}],"asset":{"generator":"FBX2glTF v0.13.1","version":"2.0"},"bufferViews":[{"buffer":0,"byteLength":3216,"byteOffset":0,"target":34963},{"buffer":0,"byteLength":10440,"byteOffset":3216,"target":34962},{"buffer":0,"byteLength":10440,"byteOffset":13656,"target":34962},{"buffer":0,"byteLength":13920,"byteOffset":24096,"target":34962},{"buffer":0,"byteLength":6960,"byteOffset":38016,"target":34962}],"buffers":[{"byteLength":44976,"uri":"SmallRock1.bin"}],"images":[{"name":"PolygonWesternFrontier_Texture_01_A_Cleaned","uri":"PolygonWesternFrontier_Texture_01_A_Cleaned.psd"}],"materials":[{"alphaMode":"OPAQUE","doubleSided":false,"extras":{"fromFBX":{"isTruePBR":false,"shadingModel":"Phong"}},"name":"RockMat","pbrMetallicRoughness":{"baseColorFactor":[1,1,1,1],"baseColorTexture":{"index":0,"texCoord":0},"metallicFactor":0.400000005960464,"roughnessFactor":0.301511347293854}}],"meshes":[{"name":"SmallRock1","primitives":[{"attributes":{"COLOR_0":3,"NORMAL":2,"POSITION":1,"TEXCOORD_0":4},"indices":0,"material":0,"mode":4}]}],"nodes":[{"mesh":0,"name":"SmallRock1","rotation":[0.0000000814603424714733,0,0,1],"scale":[0.00999999977648258,0.00999999977648258,0.0104878712445498],"translation":[0,0,0]}],"samplers":[{}],"scene":0,"scenes":[{"name":"Root Scene","nodes":[0]}],"textures":[{"name":"base_color_texture","sampler":0,"source":0}]}