{"accessors":[{"bufferView":0,"byteOffset":0,"componentType":5123,"count":939,"type":"SCALAR"},{"bufferView":1,"byteOffset":0,"componentType":5126,"count":495,"max":[5.0759711265564,8.26082706451416,3.08664059638977],"min":[-5.14979791641235,-0.10813115537167,-3.24677872657776],"type":"VEC3"},{"bufferView":2,"byteOffset":0,"componentType":5126,"count":495,"type":"VEC3"},{"bufferView":3,"byteOffset":0,"componentType":5126,"count":495,"type":"VEC2"}],"asset":{"generator":"FBX2glTF v0.13.1","version":"2.0"},"bufferViews":[{"buffer":0,"byteLength":1878,"byteOffset":0,"target":34963},{"buffer":0,"byteLength":5940,"byteOffset":1880,"target":34962},{"buffer":0,"byteLength":5940,"byteOffset":7820,"target":34962},{"buffer":0,"byteLength":3960,"byteOffset":13760,"target":34962}],"buffers":[{"byteLength":17720,"uri":"SmallRock2.bin"}],"images":[{"name":"PolygonWesternFrontier_Texture_01_A_Cleaned","uri":"PolygonWesternFrontier_Texture_01_A_Cleaned.psd"}],"materials":[{"alphaMode":"OPAQUE","doubleSided":false,"extras":{"fromFBX":{"isTruePBR":false,"shadingModel":"Phong"}},"name":"RockMat.001","pbrMetallicRoughness":{"baseColorFactor":[1,1,1,1],"baseColorTexture":{"index":0,"texCoord":0},"metallicFactor":0.400000005960464,"roughnessFactor":0.301511347293854}}],"meshes":[{"name":"SmallRock2","primitives":[{"attributes":{"NORMAL":2,"POSITION":1,"TEXCOORD_0":3},"indices":0,"material":0,"mode":4}]}],"nodes":[{"mesh":0,"name":"SmallRock2","rotation":[0.0000000814603424714733,0,0,1],"scale":[0.0181373190134764,0.011092372238636,0.017497967928648],"translation":[0,0,0]}],"samplers":[{}],"scene":0,"scenes":[{"name":"Root Scene","nodes":[0]}],"textures":[{"name":"base_color_texture","sampler":0,"source":0}]}