{"accessors":[{"bufferView":0,"byteOffset":0,"componentType":5123,"count":678,"type":"SCALAR"},{"bufferView":1,"byteOffset":0,"componentType":5126,"count":402,"max":[0.0164938364177942,0.101022452116013,0.0184936933219433],"min":[-0.01997582055628,0.0174786951392889,-0.01849504001439],"type":"VEC3"},{"bufferView":2,"byteOffset":0,"componentType":5126,"count":402,"type":"VEC3"},{"bufferView":3,"byteOffset":0,"componentType":5126,"count":402,"type":"VEC2"},{"bufferView":4,"byteOffset":0,"componentType":5123,"count":45,"type":"SCALAR"},{"bufferView":5,"byteOffset":0,"componentType":5126,"count":31,"max":[0.00302791316062212,0.0223182551562786,0.00293180975131691],"min":[-0.00302791316062,-0.00000000042957,-0.00293180975132],"type":"VEC3"},{"bufferView":6,"byteOffset":0,"componentType":5126,"count":31,"type":"VEC3"},{"bufferView":7,"byteOffset":0,"componentType":5126,"count":31,"type":"VEC2"}],"asset":{"generator":"FBX2glTF v0.13.1","version":"2.0"},"bufferViews":[{"buffer":0,"byteLength":1356,"byteOffset":0,"target":34963},{"buffer":0,"byteLength":4824,"byteOffset":1356,"target":34962},{"buffer":0,"byteLength":4824,"byteOffset":6180,"target":34962},{"buffer":0,"byteLength":3216,"byteOffset":11004,"target":34962},{"buffer":0,"byteLength":90,"byteOffset":14220,"target":34963},{"buffer":0,"byteLength":372,"byteOffset":14312,"target":34962},{"buffer":0,"byteLength":372,"byteOffset":14684,"target":34962},{"buffer":0,"byteLength":248,"byteOffset":15056,"target":34962}],"buffers":[{"byteLength":15304,"uri":"Tree2.bin"}],"materials":[{"alphaMode":"OPAQUE","doubleSided":false,"extras":{"fromFBX":{"isTruePBR":false,"shadingModel":"Phong"}},"name":"Tree","pbrMetallicRoughness":{"baseColorFactor":[0.800000011920929,0.800000011920929,0.800000011920929,0],"metallicFactor":0.400000005960464,"roughnessFactor":0.415087103843689}},{"alphaMode":"OPAQUE","doubleSided":false,"extras":{"fromFBX":{"isTruePBR":false,"shadingModel":"Phong"}},"name":"Trunk","pbrMetallicRoughness":{"baseColorFactor":[0.800000011920929,0.800000011920929,0.800000011920929,1],"metallicFactor":0.400000005960464,"roughnessFactor":0.272165536880493}}],"meshes":[{"name":"Tree2","primitives":[{"attributes":{"NORMAL":2,"POSITION":1,"TEXCOORD_0":3},"indices":0,"material":0,"mode":4},{"attributes":{"NORMAL":6,"POSITION":5,"TEXCOORD_0":7},"indices":4,"material":1,"mode":4}]}],"nodes":[{"mesh":0,"name":"Tree2","rotation":[0.000000141064987246864,0,0,1],"scale":[1,1,1],"translation":[-0.00594327179715,-0.00029625356547,-0.00068192958133]}],"samplers":[{}],"scene":0,"scenes":[{"name":"Root Scene","nodes":[0]}]}