{
	"asset":{
		"generator":"Khronos glTF Blender I/O v3.6.28",
		"version":"2.0"
	},
	"scene":0,
	"scenes":[
		{
			"name":"Scene",
			"nodes":[
				0
			]
		}
	],
	"nodes":[
		{
			"mesh":0,
			"name":"Gun1",
			"rotation":[
				-0.7218088507652283,
				-0.0628558099269867,
				-0.0016788506181910634,
				0.6892303228378296
			],
			"translation":[
				-0.17260491847991943,
				0.0010357685387134552,
				-0.00028542662039399147
			]
		}
	],
	"materials":[
		{
			"doubleSided":true,
			"name":"Gun Metal.004",
			"pbrMetallicRoughness":{
				"baseColorFactor":[
					0.07300876080989838,
					0.07300876080989838,
					0.07300876080989838,
					1
				],
				"metallicFactor":0,
				"roughnessFactor":0.5
			}
		},
		{
			"doubleSided":true,
			"name":"Grip.004",
			"pbrMetallicRoughness":{
				"baseColorFactor":[
					0.1271257847547531,
					0.05880004167556763,
					0.0021348935551941395,
					1
				],
				"metallicFactor":0,
				"roughnessFactor":0.5
			}
		}
	],
	"meshes":[
		{
			"name":"Cylinder.005",
			"primitives":[
				{
					"attributes":{
						"POSITION":0,
						"NORMAL":1
					},
					"indices":2,
					"material":0
				},
				{
					"attributes":{
						"POSITION":3,
						"NORMAL":4
					},
					"indices":5,
					"material":1
				}
			]
		}
	],
	"accessors":[
		{
			"bufferView":0,
			"componentType":5126,
			"count":1226,
			"max":[
				0.3125600218772888,
				0.039060160517692566,
				0.023800645023584366
			],
			"min":[
				-0.0884261503815651,
				-0.01786184310913086,
				-0.14185668528079987
			],
			"type":"VEC3"
		},
		{
			"bufferView":1,
			"componentType":5126,
			"count":1226,
			"type":"VEC3"
		},
		{
			"bufferView":2,
			"componentType":5123,
			"count":1617,
			"type":"SCALAR"
		},
		{
			"bufferView":3,
			"componentType":5126,
			"count":172,
			"max":[
				0.3286767899990082,
				0.04209078103303909,
				-0.05404754728078842
			],
			"min":[
				0.2213931381702423,
				0.012305941432714462,
				-0.1522548347711563
			],
			"type":"VEC3"
		},
		{
			"bufferView":4,
			"componentType":5126,
			"count":172,
			"type":"VEC3"
		},
		{
			"bufferView":5,
			"componentType":5123,
			"count":240,
			"type":"SCALAR"
		}
	],
	"bufferViews":[
		{
			"buffer":0,
			"byteLength":14712,
			"byteOffset":0,
			"target":34962
		},
		{
			"buffer":0,
			"byteLength":14712,
			"byteOffset":14712,
			"target":34962
		},
		{
			"buffer":0,
			"byteLength":3234,
			"byteOffset":29424,
			"target":34963
		},
		{
			"buffer":0,
			"byteLength":2064,
			"byteOffset":32660,
			"target":34962
		},
		{
			"buffer":0,
			"byteLength":2064,
			"byteOffset":34724,
			"target":34962
		},
		{
			"buffer":0,
			"byteLength":480,
			"byteOffset":36788,
			"target":34963
		}
	],
	"buffers":[
		{
			"byteLength":37268,
			"uri":"data:application/octet-stream;base64,"
		}
	]
}
