{"accessors":[{"bufferView":0,"byteOffset":0,"componentType":5123,"count":14634,"type":"SCALAR"},{"bufferView":1,"byteOffset":0,"componentType":5126,"count":9956,"max":[0.0420001037418842,0.0657553002238274,0.0533811897039413],"min":[-0.0420000962913,-0.0000859698921,-0.03200038522482],"type":"VEC3"},{"bufferView":2,"byteOffset":0,"componentType":5126,"count":9956,"type":"VEC3"},{"bufferView":3,"byteOffset":0,"componentType":5126,"count":9956,"type":"VEC2"},{"bufferView":4,"byteOffset":0,"componentType":5126,"count":9956,"type":"VEC2"},{"bufferView":5,"byteOffset":0,"componentType":5123,"count":11388,"type":"SCALAR"},{"bufferView":6,"byteOffset":0,"componentType":5126,"count":7005,"max":[0.0340003594756126,0.0353772528469563,0.0490003637969494],"min":[-0.03400035947561,0.0255044624209404,0.0319996401667595],"type":"VEC3"},{"bufferView":7,"byteOffset":0,"componentType":5126,"count":7005,"type":"VEC3"},{"bufferView":8,"byteOffset":0,"componentType":5126,"count":7005,"type":"VEC2"},{"bufferView":9,"byteOffset":0,"componentType":5126,"count":7005,"type":"VEC2"},{"bufferView":10,"byteOffset":0,"componentType":5123,"count":54,"type":"SCALAR"},{"bufferView":11,"byteOffset":0,"componentType":5126,"count":44,"max":[0.0398741699755192,0.0255045630037785,0.0531752146780491],"min":[-0.03988070785999,0.00072271592216566,-0.03200038522482],"type":"VEC3"},{"bufferView":12,"byteOffset":0,"componentType":5126,"count":44,"type":"VEC3"},{"bufferView":13,"byteOffset":0,"componentType":5126,"count":44,"type":"VEC2"},{"bufferView":14,"byteOffset":0,"componentType":5126,"count":44,"type":"VEC2"},{"bufferView":15,"byteOffset":0,"componentType":5123,"count":600,"type":"SCALAR"},{"bufferView":16,"byteOffset":0,"componentType":5126,"count":426,"max":[0.0400001183152199,0.0488117299973965,0.0307242013514042],"min":[-0.04000009968877,0.00154083967208862,-0.03000009991229],"type":"VEC3"},{"bufferView":17,"byteOffset":0,"componentType":5126,"count":426,"type":"VEC3"},{"bufferView":18,"byteOffset":0,"componentType":5126,"count":426,"type":"VEC2"},{"bufferView":19,"byteOffset":0,"componentType":5126,"count":426,"type":"VEC2"},{"bufferView":20,"byteOffset":0,"componentType":5123,"count":885,"type":"SCALAR"},{"bufferView":21,"byteOffset":0,"componentType":5126,"count":455,"max":[0.031806468963623,0.0467632412910461,0.03203996270895],"min":[-0.03805359825492,0.0007581936661154,0.0294943023473024],"type":"VEC3"},{"bufferView":22,"byteOffset":0,"componentType":5126,"count":455,"type":"VEC3"},{"bufferView":23,"byteOffset":0,"componentType":5126,"count":455,"type":"VEC2"},{"bufferView":24,"byteOffset":0,"componentType":5126,"count":455,"type":"VEC2"},{"bufferView":25,"byteOffset":0,"componentType":5123,"count":5712,"type":"SCALAR"},{"bufferView":26,"byteOffset":0,"componentType":5126,"count":3072,"max":[0.0304805971682072,0.0455618239939213,0.0364796929061413],"min":[-0.02457280643284,0.00788278412073851,0.0313594341278076],"type":"VEC3"},{"bufferView":27,"byteOffset":0,"componentType":5126,"count":3072,"type":"VEC3"},{"bufferView":28,"byteOffset":0,"componentType":5126,"count":3072,"type":"VEC2"},{"bufferView":29,"byteOffset":0,"componentType":5126,"count":3072,"type":"VEC2"},{"bufferView":30,"byteOffset":0,"componentType":5123,"count":579,"type":"SCALAR"},{"bufferView":31,"byteOffset":0,"componentType":5126,"count":376,"max":[0.017985112965107,0.0467700995504856,0.03203996270895],"min":[-0.03813740238547,0.00024609500542283,-0.03224056586623],"type":"VEC3"},{"bufferView":32,"byteOffset":0,"componentType":5126,"count":376,"type":"VEC3"},{"bufferView":33,"byteOffset":0,"componentType":5126,"count":376,"type":"VEC2"},{"bufferView":34,"byteOffset":0,"componentType":5126,"count":376,"type":"VEC2"},{"bufferView":35,"byteOffset":0,"componentType":5123,"count":60,"type":"SCALAR"},{"bufferView":36,"byteOffset":0,"componentType":5126,"count":40,"max":[0.0378709770739079,0.0240499172359705,0.0307242013514042],"min":[-0.01188025530428,0.00154083967208862,0.0304343216121197],"type":"VEC3"},{"bufferView":37,"byteOffset":0,"componentType":5126,"count":40,"type":"VEC3"},{"bufferView":38,"byteOffset":0,"componentType":5126,"count":40,"type":"VEC2"},{"bufferView":39,"byteOffset":0,"componentType":5126,"count":40,"type":"VEC2"},{"bufferView":40,"byteOffset":0,"componentType":5123,"count":48,"type":"SCALAR"},{"bufferView":41,"byteOffset":0,"componentType":5126,"count":40,"max":[0.0390000976622105,0.0451189018785954,0.00978350266814232],"min":[-0.03900009766221,0.00835853349417448,-0.00978431291878],"type":"VEC3"},{"bufferView":42,"byteOffset":0,"componentType":5126,"count":40,"type":"VEC3"},{"bufferView":43,"byteOffset":0,"componentType":5126,"count":40,"type":"VEC2"},{"bufferView":44,"byteOffset":0,"componentType":5126,"count":40,"type":"VEC2"},{"bufferView":45,"byteOffset":0,"componentType":5123,"count":60,"type":"SCALAR"},{"bufferView":46,"byteOffset":0,"componentType":5126,"count":40,"max":[0.0399999991059303,0.0501863025128841,0.0252000354230404],"min":[-0.03999999910593,0.0500862002372742,-0.02999999932945],"type":"VEC3"},{"bufferView":47,"byteOffset":0,"componentType":5126,"count":40,"type":"VEC3"},{"bufferView":48,"byteOffset":0,"componentType":5126,"count":40,"type":"VEC2"},{"bufferView":49,"byteOffset":0,"componentType":5126,"count":40,"type":"VEC2"},{"bufferView":50,"byteOffset":0,"componentType":5123,"count":72,"type":"SCALAR"},{"bufferView":51,"byteOffset":0,"componentType":5126,"count":48,"max":[0.0173368267714977,0.0631343945860863,0.0308082010596991],"min":[-0.01673920638859,0.0535857565701008,0.0296165533363819],"type":"VEC3"},{"bufferView":52,"byteOffset":0,"componentType":5126,"count":48,"type":"VEC3"},{"bufferView":53,"byteOffset":0,"componentType":5126,"count":48,"type":"VEC2"},{"bufferView":54,"byteOffset":0,"componentType":5126,"count":48,"type":"VEC2"},{"bufferView":55,"byteOffset":0,"componentType":5125,"count":1030548,"type":"SCALAR"},{"bufferView":56,"byteOffset":0,"componentType":5126,"count":178287,"max":[0.0157947298139334,0.0849820598959923,0.061891745775938],"min":[-0.06823005527258,0.0157553795725107,0.0188669003546238],"type":"VEC3"},{"bufferView":57,"byteOffset":0,"componentType":5126,"count":178287,"type":"VEC3"},{"bufferView":58,"byteOffset":0,"componentType":5126,"count":178287,"type":"VEC2"},{"bufferView":59,"byteOffset":0,"componentType":5126,"count":178287,"type":"VEC2"}],"asset":{"generator":"FBX2glTF v0.13.1","version":"2.0"},"bufferViews":[{"buffer":0,"byteLength":29268,"byteOffset":0,"target":34963},{"buffer":0,"byteLength":119472,"byteOffset":29268,"target":34962},{"buffer":0,"byteLength":119472,"byteOffset":148740,"target":34962},{"buffer":0,"byteLength":79648,"byteOffset":268212,"target":34962},{"buffer":0,"byteLength":79648,"byteOffset":347860,"target":34962},{"buffer":0,"byteLength":22776,"byteOffset":427508,"target":34963},{"buffer":0,"byteLength":84060,"byteOffset":450284,"target":34962},{"buffer":0,"byteLength":84060,"byteOffset":534344,"target":34962},{"buffer":0,"byteLength":56040,"byteOffset":618404,"target":34962},{"buffer":0,"byteLength":56040,"byteOffset":674444,"target":34962},{"buffer":0,"byteLength":108,"byteOffset":730484,"target":34963},{"buffer":0,"byteLength":528,"byteOffset":730592,"target":34962},{"buffer":0,"byteLength":528,"byteOffset":731120,"target":34962},{"buffer":0,"byteLength":352,"byteOffset":731648,"target":34962},{"buffer":0,"byteLength":352,"byteOffset":732000,"target":34962},{"buffer":0,"byteLength":1200,"byteOffset":732352,"target":34963},{"buffer":0,"byteLength":5112,"byteOffset":733552,"target":34962},{"buffer":0,"byteLength":5112,"byteOffset":738664,"target":34962},{"buffer":0,"byteLength":3408,"byteOffset":743776,"target":34962},{"buffer":0,"byteLength":3408,"byteOffset":747184,"target":34962},{"buffer":0,"byteLength":1770,"byteOffset":750592,"target":34963},{"buffer":0,"byteLength":5460,"byteOffset":752364,"target":34962},{"buffer":0,"byteLength":5460,"byteOffset":757824,"target":34962},{"buffer":0,"byteLength":3640,"byteOffset":763284,"target":34962},{"buffer":0,"byteLength":3640,"byteOffset":766924,"target":34962},{"buffer":0,"byteLength":11424,"byteOffset":770564,"target":34963},{"buffer":0,"byteLength":36864,"byteOffset":781988,"target":34962},{"buffer":0,"byteLength":36864,"byteOffset":818852,"target":34962},{"buffer":0,"byteLength":24576,"byteOffset":855716,"target":34962},{"buffer":0,"byteLength":24576,"byteOffset":880292,"target":34962},{"buffer":0,"byteLength":1158,"byteOffset":904868,"target":34963},{"buffer":0,"byteLength":4512,"byteOffset":906028,"target":34962},{"buffer":0,"byteLength":4512,"byteOffset":910540,"target":34962},{"buffer":0,"byteLength":3008,"byteOffset":915052,"target":34962},{"buffer":0,"byteLength":3008,"byteOffset":918060,"target":34962},{"buffer":0,"byteLength":120,"byteOffset":921068,"target":34963},{"buffer":0,"byteLength":480,"byteOffset":921188,"target":34962},{"buffer":0,"byteLength":480,"byteOffset":921668,"target":34962},{"buffer":0,"byteLength":320,"byteOffset":922148,"target":34962},{"buffer":0,"byteLength":320,"byteOffset":922468,"target":34962},{"buffer":0,"byteLength":96,"byteOffset":922788,"target":34963},{"buffer":0,"byteLength":480,"byteOffset":922884,"target":34962},{"buffer":0,"byteLength":480,"byteOffset":923364,"target":34962},{"buffer":0,"byteLength":320,"byteOffset":923844,"target":34962},{"buffer":0,"byteLength":320,"byteOffset":924164,"target":34962},{"buffer":0,"byteLength":120,"byteOffset":924484,"target":34963},{"buffer":0,"byteLength":480,"byteOffset":924604,"target":34962},{"buffer":0,"byteLength":480,"byteOffset":925084,"target":34962},{"buffer":0,"byteLength":320,"byteOffset":925564,"target":34962},{"buffer":0,"byteLength":320,"byteOffset":925884,"target":34962},{"buffer":0,"byteLength":144,"byteOffset":926204,"target":34963},{"buffer":0,"byteLength":576,"byteOffset":926348,"target":34962},{"buffer":0,"byteLength":576,"byteOffset":926924,"target":34962},{"buffer":0,"byteLength":384,"byteOffset":927500,"target":34962},{"buffer":0,"byteLength":384,"byteOffset":927884,"target":34962},{"buffer":0,"byteLength":4122192,"byteOffset":928268,"target":34963},{"buffer":0,"byteLength":2139444,"byteOffset":5050460,"target":34962},{"buffer":0,"byteLength":2139444,"byteOffset":7189904,"target":34962},{"buffer":0,"byteLength":1426296,"byteOffset":9329348,"target":34962},{"buffer":0,"byteLength":1426296,"byteOffset":10755644,"target":34962}],"buffers":[{"byteLength":12181940,"uri":"building3.bin"}],"materials":[{"alphaMode":"OPAQUE","doubleSided":false,"extras":{"fromFBX":{"isTruePBR":false,"shadingModel":"Phong"}},"name":"Beams.001","pbrMetallicRoughness":{"baseColorFactor":[0.800000011920929,0.800000011920929,0.800000011920929,1],"metallicFactor":0.400000005960464,"roughnessFactor":0.272165536880493}},{"alphaMode":"OPAQUE","doubleSided":false,"extras":{"fromFBX":{"isTruePBR":false,"shadingModel":"Phong"}},"name":"Rails.001","pbrMetallicRoughness":{"baseColorFactor":[0.800000011920929,0.800000011920929,0.800000011920929,1],"metallicFactor":0.400000005960464,"roughnessFactor":0.272165536880493}},{"alphaMode":"OPAQUE","doubleSided":false,"extras":{"fromFBX":{"isTruePBR":false,"shadingModel":"Phong"}},"name":"Floors.003","pbrMetallicRoughness":{"baseColorFactor":[0.800000011920929,0.800000011920929,0.800000011920929,1],"metallicFactor":0.400000005960464,"roughnessFactor":0.272165536880493}},{"alphaMode":"OPAQUE","doubleSided":false,"extras":{"fromFBX":{"isTruePBR":false,"shadingModel":"Phong"}},"name":"Walls.003","pbrMetallicRoughness":{"baseColorFactor":[0.800000011920929,0.800000011920929,0.800000011920929,1],"metallicFactor":0.400000005960464,"roughnessFactor":0.272165536880493}},{"alphaMode":"OPAQUE","doubleSided":false,"extras":{"fromFBX":{"isTruePBR":false,"shadingModel":"Phong"}},"name":"Frames.003","pbrMetallicRoughness":{"baseColorFactor":[0.800000011920929,0.800000011920929,0.800000011920929,1],"metallicFactor":0.400000005960464,"roughnessFactor":0.272165536880493}},{"alphaMode":"OPAQUE","doubleSided":false,"extras":{"fromFBX":{"isTruePBR":false,"shadingModel":"Phong"}},"name":"Shutters.003","pbrMetallicRoughness":{"baseColorFactor":[0.800000011920929,0.800000011920929,0.800000011920929,1],"metallicFactor":0.400000005960464,"roughnessFactor":0.272165536880493}},{"alphaMode":"OPAQUE","doubleSided":false,"extras":{"fromFBX":{"isTruePBR":false,"shadingModel":"Phong"}},"name":"Doors.001","pbrMetallicRoughness":{"baseColorFactor":[0.800000011920929,0.800000011920929,0.800000011920929,1],"metallicFactor":0.400000005960464,"roughnessFactor":0.272165536880493}},{"alphaMode":"OPAQUE","doubleSided":false,"extras":{"fromFBX":{"isTruePBR":false,"shadingModel":"Phong"}},"name":"Stairs.003","pbrMetallicRoughness":{"baseColorFactor":[0.800000011920929,0.800000011920929,0.800000011920929,1],"metallicFactor":0.400000005960464,"roughnessFactor":0.272165536880493}},{"alphaMode":"OPAQUE","doubleSided":false,"extras":{"fromFBX":{"isTruePBR":false,"shadingModel":"Phong"}},"name":"Panels.003","pbrMetallicRoughness":{"baseColorFactor":[0.800000011920929,0.800000011920929,0.800000011920929,1],"metallicFactor":0.400000005960464,"roughnessFactor":0.272165536880493}},{"alphaMode":"OPAQUE","doubleSided":false,"extras":{"fromFBX":{"isTruePBR":false,"shadingModel":"Phong"}},"name":"Roof.001","pbrMetallicRoughness":{"baseColorFactor":[0.800000011920929,0.800000011920929,0.800000011920929,1],"metallicFactor":0.400000005960464,"roughnessFactor":0.272165536880493}},{"alphaMode":"OPAQUE","doubleSided":false,"extras":{"fromFBX":{"isTruePBR":false,"shadingModel":"Phong"}},"name":"Sign.003","pbrMetallicRoughness":{"baseColorFactor":[0.800000011920929,0.800000011920929,0.800000011920929,1],"metallicFactor":0.400000005960464,"roughnessFactor":0.272165536880493}},{"alphaMode":"OPAQUE","doubleSided":false,"extras":{"fromFBX":{"isTruePBR":false,"shadingModel":"Phong"}},"name":"Web.007","pbrMetallicRoughness":{"baseColorFactor":[1,1,1,1],"metallicFactor":0.400000005960464,"roughnessFactor":0.272165536880493}}],"meshes":[{"name":"Building3","primitives":[{"attributes":{"NORMAL":2,"POSITION":1,"TEXCOORD_0":3,"TEXCOORD_1":4},"indices":0,"material":0,"mode":4},{"attributes":{"NORMAL":7,"POSITION":6,"TEXCOORD_0":8,"TEXCOORD_1":9},"indices":5,"material":1,"mode":4},{"attributes":{"NORMAL":12,"POSITION":11,"TEXCOORD_0":13,"TEXCOORD_1":14},"indices":10,"material":2,"mode":4},{"attributes":{"NORMAL":17,"POSITION":16,"TEXCOORD_0":18,"TEXCOORD_1":19},"indices":15,"material":3,"mode":4},{"attributes":{"NORMAL":22,"POSITION":21,"TEXCOORD_0":23,"TEXCOORD_1":24},"indices":20,"material":4,"mode":4},{"attributes":{"NORMAL":27,"POSITION":26,"TEXCOORD_0":28,"TEXCOORD_1":29},"indices":25,"material":5,"mode":4},{"attributes":{"NORMAL":32,"POSITION":31,"TEXCOORD_0":33,"TEXCOORD_1":34},"indices":30,"material":6,"mode":4},{"attributes":{"NORMAL":37,"POSITION":36,"TEXCOORD_0":38,"TEXCOORD_1":39},"indices":35,"material":7,"mode":4},{"attributes":{"NORMAL":42,"POSITION":41,"TEXCOORD_0":43,"TEXCOORD_1":44},"indices":40,"material":8,"mode":4},{"attributes":{"NORMAL":47,"POSITION":46,"TEXCOORD_0":48,"TEXCOORD_1":49},"indices":45,"material":9,"mode":4},{"attributes":{"NORMAL":52,"POSITION":51,"TEXCOORD_0":53,"TEXCOORD_1":54},"indices":50,"material":10,"mode":4}]},{"name":"Cobwebs.002","primitives":[{"attributes":{"NORMAL":57,"POSITION":56,"TEXCOORD_0":58,"TEXCOORD_1":59},"indices":55,"material":11,"mode":4}]}],"nodes":[{"mesh":0,"name":"Building3","rotation":[0.000000141064987246864,0.00000000000000234489255337739,-0,1],"scale":[1,1,1],"translation":[0,0,0]},{"mesh":1,"name":"Cobwebs.002","rotation":[0.000000021855694143369,0,0,1],"scale":[1,1,1],"translation":[0.0284224506467581,-0.01207010447979,-0.03825699537992]}],"samplers":[{}],"scene":0,"scenes":[{"name":"Root Scene","nodes":[0,1]}]}