{"accessors":[{"bufferView":0,"byteOffset":0,"componentType":5123,"count":4944,"type":"SCALAR"},{"bufferView":1,"byteOffset":0,"componentType":5126,"count":3160,"max":[0.0192804709076881,0.00313310115598142,0.0101521611213684],"min":[-0.03860513865948,-0.00070493092062,-0.00158535002265],"type":"VEC3"},{"bufferView":2,"byteOffset":0,"componentType":5126,"count":3160,"type":"VEC3"},{"bufferView":3,"byteOffset":0,"componentType":5126,"count":3160,"type":"VEC2"}],"asset":{"generator":"FBX2glTF v0.13.1","version":"2.0"},"bufferViews":[{"buffer":0,"byteLength":9888,"byteOffset":0,"target":34963},{"buffer":0,"byteLength":37920,"byteOffset":9888,"target":34962},{"buffer":0,"byteLength":37920,"byteOffset":47808,"target":34962},{"buffer":0,"byteLength":25280,"byteOffset":85728,"target":34962}],"buffers":[{"byteLength":111008,"uri":"Fence2.bin"}],"images":[{"name":"ImphenziaPalette01-256-Gradient","uri":"ImphenziaPalette01-256-Gradient.png"}],"materials":[{"alphaMode":"OPAQUE","doubleSided":false,"extras":{"fromFBX":{"isTruePBR":false,"shadingModel":"Phong"}},"name":"Material.021","pbrMetallicRoughness":{"baseColorFactor":[1,1,1,1],"baseColorTexture":{"index":0,"texCoord":0},"metallicFactor":0.400000005960464,"roughnessFactor":1}}],"meshes":[{"name":"Fence1","primitives":[{"attributes":{"NORMAL":2,"POSITION":1,"TEXCOORD_0":3},"indices":0,"material":0,"mode":4}]}],"nodes":[{"mesh":0,"name":"Fence1","rotation":[0.000000021855694143369,0,0,1],"scale":[1,1,1],"translation":[0,0,0]}],"samplers":[{}],"scene":0,"scenes":[{"name":"Root Scene","nodes":[0]}],"textures":[{"name":"base_color_texture","sampler":0,"source":0}]}