{"accessors":[{"bufferView":0,"byteOffset":0,"componentType":5123,"count":13905,"type":"SCALAR"},{"bufferView":1,"byteOffset":0,"componentType":5126,"count":7687,"max":[0.00897460523992777,0.0102292560040951,0.0105477403849363],"min":[-0.01102539431304,-0.00977074448019,0.00417411001399159],"type":"VEC3"},{"bufferView":2,"byteOffset":0,"componentType":5126,"count":7687,"type":"VEC3"},{"bufferView":3,"byteOffset":0,"componentType":5126,"count":7687,"type":"VEC2"}],"asset":{"generator":"FBX2glTF v0.13.1","version":"2.0"},"bufferViews":[{"buffer":0,"byteLength":27810,"byteOffset":0,"target":34963},{"buffer":0,"byteLength":92244,"byteOffset":27812,"target":34962},{"buffer":0,"byteLength":92244,"byteOffset":120056,"target":34962},{"buffer":0,"byteLength":61496,"byteOffset":212300,"target":34962}],"buffers":[{"byteLength":273796,"uri":"Ground.bin"}],"materials":[{"alphaMode":"OPAQUE","doubleSided":false,"extras":{"fromFBX":{"isTruePBR":false,"shadingModel":"Phong"}},"name":"Material.019","pbrMetallicRoughness":{"baseColorFactor":[0.800000011920929,0.800000011920929,0.800000011920929,1],"metallicFactor":0.400000005960464,"roughnessFactor":0.272165536880493}}],"meshes":[{"name":"Cube","primitives":[{"attributes":{"NORMAL":2,"POSITION":1,"TEXCOORD_0":3},"indices":0,"material":0,"mode":4}]}],"nodes":[{"mesh":0,"name":"Cube","rotation":[0.000000021855694143369,0,0,1],"scale":[15,15,1],"translation":[0,0,0]}],"samplers":[{}],"scene":0,"scenes":[{"name":"Root Scene","nodes":[0]}]}