{"accessors":[{"bufferView":0,"byteOffset":0,"componentType":5123,"count":5976,"type":"SCALAR"},{"bufferView":1,"byteOffset":0,"componentType":5126,"count":3956,"max":[0.00159199023619294,0.00453647086396813,0.0111994529142976],"min":[-0.00055622932268,0.00227987882681191,0.00882186833769083],"type":"VEC3"},{"bufferView":2,"byteOffset":0,"componentType":5126,"count":3956,"type":"VEC3"},{"bufferView":3,"byteOffset":0,"componentType":5126,"count":3956,"type":"VEC2"},{"bufferView":4,"byteOffset":0,"componentType":5126,"count":3956,"type":"VEC2"}],"asset":{"generator":"FBX2glTF v0.13.1","version":"2.0"},"bufferViews":[{"buffer":0,"byteLength":11952,"byteOffset":0,"target":34963},{"buffer":0,"byteLength":47472,"byteOffset":11952,"target":34962},{"buffer":0,"byteLength":47472,"byteOffset":59424,"target":34962},{"buffer":0,"byteLength":31648,"byteOffset":106896,"target":34962},{"buffer":0,"byteLength":31648,"byteOffset":138544,"target":34962}],"buffers":[{"byteLength":170192,"uri":"skull.bin"}],"materials":[{"alphaMode":"OPAQUE","doubleSided":false,"extras":{"fromFBX":{"isTruePBR":false,"shadingModel":"Phong"}},"name":"Material.001","pbrMetallicRoughness":{"baseColorFactor":[1,1,1,1],"metallicFactor":0.400000005960464,"roughnessFactor":0.272165536880493}}],"meshes":[{"name":"Skull","primitives":[{"attributes":{"NORMAL":2,"POSITION":1,"TEXCOORD_0":3,"TEXCOORD_1":4},"indices":0,"material":0,"mode":4}]}],"nodes":[{"mesh":0,"name":"Skull","rotation":[0.000000021855694143369,0.00000000000000000000000000000015,0.00000000000000000000000665460262,1],"scale":[1,1,1],"translation":[-0.01245582476258,-0.00891751889139,0.00424449238926172]}],"samplers":[{}],"scene":0,"scenes":[{"name":"Root Scene","nodes":[0]}]}