{"accessors":[{"bufferView":0,"byteOffset":0,"componentType":5123,"count":90918,"type":"SCALAR"},{"bufferView":1,"byteOffset":0,"componentType":5126,"count":30694,"max":[0.0927982777357101,0.00412640906870365,0.0657323971390724],"min":[-0.02102543599904,-0.12201651185751,-0.04114693030715],"type":"VEC3"},{"bufferView":2,"byteOffset":0,"componentType":5126,"count":30694,"type":"VEC3"},{"bufferView":3,"byteOffset":0,"componentType":5126,"count":30694,"type":"VEC2"},{"bufferView":4,"byteOffset":0,"componentType":5126,"count":30694,"type":"VEC2"}],"asset":{"generator":"FBX2glTF v0.13.1","version":"2.0"},"bufferViews":[{"buffer":0,"byteLength":181836,"byteOffset":0,"target":34963},{"buffer":0,"byteLength":368328,"byteOffset":181836,"target":34962},{"buffer":0,"byteLength":368328,"byteOffset":550164,"target":34962},{"buffer":0,"byteLength":245552,"byteOffset":918492,"target":34962},{"buffer":0,"byteLength":245552,"byteOffset":1164044,"target":34962}],"buffers":[{"byteLength":1409596,"uri":"Tower.bin"}],"materials":[{"alphaMode":"OPAQUE","doubleSided":false,"extras":{"fromFBX":{"isTruePBR":false,"shadingModel":"Phong"}},"name":"Tower","pbrMetallicRoughness":{"baseColorFactor":[0.800000011920929,0.800000011920929,0.800000011920929,1],"metallicFactor":0.400000005960464,"roughnessFactor":0.272165536880493}}],"meshes":[{"name":"Tower","primitives":[{"attributes":{"NORMAL":2,"POSITION":1,"TEXCOORD_0":3,"TEXCOORD_1":4},"indices":0,"material":0,"mode":4}]}],"nodes":[{"mesh":0,"name":"Tower","rotation":[0.000000260274276797645,0,0,1],"scale":[1,1,1],"translation":[-0.02676289901137,0.119151249527931,0.032339733093977]}],"samplers":[{}],"scene":0,"scenes":[{"name":"Root Scene","nodes":[0]}]}