{"accessors":[{"bufferView":0,"byteOffset":0,"componentType":5123,"count":666,"type":"SCALAR"},{"bufferView":1,"byteOffset":0,"componentType":5126,"count":398,"max":[-0.00162989913952,0.0630440190434456,0.00636106310412288],"min":[-0.01665137894452,0.0155982784926891,-0.00864051654935],"type":"VEC3"},{"bufferView":2,"byteOffset":0,"componentType":5126,"count":398,"type":"VEC3"},{"bufferView":3,"byteOffset":0,"componentType":5126,"count":398,"type":"VEC2"},{"bufferView":4,"byteOffset":0,"componentType":5123,"count":45,"type":"SCALAR"},{"bufferView":5,"byteOffset":0,"componentType":5126,"count":26,"max":[-0.00743481563404,0.0263679288327694,0.00065155705669894],"min":[-0.01083049550653,-0.00139612762723,-0.00264774635434],"type":"VEC3"},{"bufferView":6,"byteOffset":0,"componentType":5126,"count":26,"type":"VEC3"},{"bufferView":7,"byteOffset":0,"componentType":5126,"count":26,"type":"VEC2"}],"asset":{"generator":"FBX2glTF v0.13.1","version":"2.0"},"bufferViews":[{"buffer":0,"byteLength":1332,"byteOffset":0,"target":34963},{"buffer":0,"byteLength":4776,"byteOffset":1332,"target":34962},{"buffer":0,"byteLength":4776,"byteOffset":6108,"target":34962},{"buffer":0,"byteLength":3184,"byteOffset":10884,"target":34962},{"buffer":0,"byteLength":90,"byteOffset":14068,"target":34963},{"buffer":0,"byteLength":312,"byteOffset":14160,"target":34962},{"buffer":0,"byteLength":312,"byteOffset":14472,"target":34962},{"buffer":0,"byteLength":208,"byteOffset":14784,"target":34962}],"buffers":[{"byteLength":14992,"uri":"Tree1.bin"}],"materials":[{"alphaMode":"OPAQUE","doubleSided":false,"extras":{"fromFBX":{"isTruePBR":false,"shadingModel":"Phong"}},"name":"Foilage","pbrMetallicRoughness":{"baseColorFactor":[0.800000011920929,0.800000011920929,0.800000011920929,1],"metallicFactor":0.400000005960464,"roughnessFactor":0.272165536880493}},{"alphaMode":"OPAQUE","doubleSided":false,"extras":{"fromFBX":{"isTruePBR":false,"shadingModel":"Phong"}},"name":"Trunk.001","pbrMetallicRoughness":{"baseColorFactor":[0.800000011920929,0.800000011920929,0.800000011920929,1],"metallicFactor":0.400000005960464,"roughnessFactor":0.272165536880493}}],"meshes":[{"name":"Tree1","primitives":[{"attributes":{"NORMAL":2,"POSITION":1,"TEXCOORD_0":3},"indices":0,"material":0,"mode":4},{"attributes":{"NORMAL":6,"POSITION":5,"TEXCOORD_0":7},"indices":4,"material":1,"mode":4}]}],"nodes":[{"mesh":0,"name":"Tree1","rotation":[0.000000021855694143369,0,0,1],"scale":[1,1,1],"translation":[0,0,0]}],"samplers":[{}],"scene":0,"scenes":[{"name":"Root Scene","nodes":[0]}]}