{"accessors":[{"bufferView":0,"byteOffset":0,"componentType":5123,"count":1056,"type":"SCALAR"},{"bufferView":1,"byteOffset":0,"componentType":5126,"count":537,"max":[-0.00026814811281,0.0206722542643547,0.0007631714688614],"min":[-0.01195381768048,-0.02062959782779,-0.00364679121412],"type":"VEC3"},{"bufferView":2,"byteOffset":0,"componentType":5126,"count":537,"type":"VEC3"},{"bufferView":3,"byteOffset":0,"componentType":5126,"count":537,"type":"VEC2"},{"bufferView":4,"byteOffset":0,"componentType":5123,"count":9372,"type":"SCALAR"},{"bufferView":5,"byteOffset":0,"componentType":5126,"count":5554,"max":[0.004912368953228,0.0378210954368114,0.0010219617979601],"min":[-0.01275200117379,-0.02105244807899,-0.01327238045633],"type":"VEC3"},{"bufferView":6,"byteOffset":0,"componentType":5126,"count":5554,"type":"VEC3"},{"bufferView":7,"byteOffset":0,"componentType":5126,"count":5554,"type":"VEC2"},{"bufferView":8,"byteOffset":0,"componentType":5123,"count":120,"type":"SCALAR"},{"bufferView":9,"byteOffset":0,"componentType":5126,"count":80,"max":[0.00453886529430747,0.0123077565804124,-0.00686236470938],"min":[0.00353487092070282,-0.01467007864267,-0.0085437502712],"type":"VEC3"},{"bufferView":10,"byteOffset":0,"componentType":5126,"count":80,"type":"VEC3"},{"bufferView":11,"byteOffset":0,"componentType":5126,"count":80,"type":"VEC2"},{"bufferView":12,"byteOffset":0,"componentType":5123,"count":2334,"type":"SCALAR"},{"bufferView":13,"byteOffset":0,"componentType":5126,"count":1507,"max":[-0.01155503839254,-0.00822938419878,-0.00213373592123],"min":[-0.01622195728123,-0.01942938379943,-0.01327238045633],"type":"VEC3"},{"bufferView":14,"byteOffset":0,"componentType":5126,"count":1507,"type":"VEC3"},{"bufferView":15,"byteOffset":0,"componentType":5126,"count":1507,"type":"VEC2"},{"bufferView":16,"byteOffset":0,"componentType":5123,"count":60,"type":"SCALAR"},{"bufferView":17,"byteOffset":0,"componentType":5126,"count":40,"max":[-0.01567878387868,-0.01298869214952,-0.00686236470938],"min":[-0.01605807431042,-0.01467007864267,-0.0085437502712],"type":"VEC3"},{"bufferView":18,"byteOffset":0,"componentType":5126,"count":40,"type":"VEC3"},{"bufferView":19,"byteOffset":0,"componentType":5126,"count":40,"type":"VEC2"},{"bufferView":20,"byteOffset":0,"componentType":5123,"count":2406,"type":"SCALAR"},{"bufferView":21,"byteOffset":0,"componentType":5126,"count":1531,"max":[-0.01153251901269,0.0170670654624701,-0.00213373592123],"min":[-0.01705628633499,0.0058670649304986,-0.01327238045633],"type":"VEC3"},{"bufferView":22,"byteOffset":0,"componentType":5126,"count":1531,"type":"VEC3"},{"bufferView":23,"byteOffset":0,"componentType":5126,"count":1531,"type":"VEC2"},{"bufferView":24,"byteOffset":0,"componentType":5123,"count":60,"type":"SCALAR"},{"bufferView":25,"byteOffset":0,"componentType":5126,"count":40,"max":[-0.01630348712206,0.0123077565804124,-0.00686236470938],"min":[-0.0166827775538,0.0106263710185885,-0.0085437502712],"type":"VEC3"},{"bufferView":26,"byteOffset":0,"componentType":5126,"count":40,"type":"VEC3"},{"bufferView":27,"byteOffset":0,"componentType":5126,"count":40,"type":"VEC2"}],"asset":{"generator":"FBX2glTF v0.13.1","version":"2.0"},"bufferViews":[{"buffer":0,"byteLength":2112,"byteOffset":0,"target":34963},{"buffer":0,"byteLength":6444,"byteOffset":2112,"target":34962},{"buffer":0,"byteLength":6444,"byteOffset":8556,"target":34962},{"buffer":0,"byteLength":4296,"byteOffset":15000,"target":34962},{"buffer":0,"byteLength":18744,"byteOffset":19296,"target":34963},{"buffer":0,"byteLength":66648,"byteOffset":38040,"target":34962},{"buffer":0,"byteLength":66648,"byteOffset":104688,"target":34962},{"buffer":0,"byteLength":44432,"byteOffset":171336,"target":34962},{"buffer":0,"byteLength":240,"byteOffset":215768,"target":34963},{"buffer":0,"byteLength":960,"byteOffset":216008,"target":34962},{"buffer":0,"byteLength":960,"byteOffset":216968,"target":34962},{"buffer":0,"byteLength":640,"byteOffset":217928,"target":34962},{"buffer":0,"byteLength":4668,"byteOffset":218568,"target":34963},{"buffer":0,"byteLength":18084,"byteOffset":223236,"target":34962},{"buffer":0,"byteLength":18084,"byteOffset":241320,"target":34962},{"buffer":0,"byteLength":12056,"byteOffset":259404,"target":34962},{"buffer":0,"byteLength":120,"byteOffset":271460,"target":34963},{"buffer":0,"byteLength":480,"byteOffset":271580,"target":34962},{"buffer":0,"byteLength":480,"byteOffset":272060,"target":34962},{"buffer":0,"byteLength":320,"byteOffset":272540,"target":34962},{"buffer":0,"byteLength":4812,"byteOffset":272860,"target":34963},{"buffer":0,"byteLength":18372,"byteOffset":277672,"target":34962},{"buffer":0,"byteLength":18372,"byteOffset":296044,"target":34962},{"buffer":0,"byteLength":12248,"byteOffset":314416,"target":34962},{"buffer":0,"byteLength":120,"byteOffset":326664,"target":34963},{"buffer":0,"byteLength":480,"byteOffset":326784,"target":34962},{"buffer":0,"byteLength":480,"byteOffset":327264,"target":34962},{"buffer":0,"byteLength":320,"byteOffset":327744,"target":34962}],"buffers":[{"byteLength":328064,"uri":"Wagon.bin"}],"materials":[{"alphaMode":"OPAQUE","doubleSided":false,"extras":{"fromFBX":{"isTruePBR":false,"shadingModel":"Phong"}},"name":"Material.011","pbrMetallicRoughness":{"baseColorFactor":[0.800000011920929,0.800000011920929,0.800000011920929,1],"metallicFactor":0.400000005960464,"roughnessFactor":0.272165536880493}},{"alphaMode":"OPAQUE","doubleSided":false,"extras":{"fromFBX":{"isTruePBR":false,"shadingModel":"Phong"}},"name":"Material.012","pbrMetallicRoughness":{"baseColorFactor":[0.800000011920929,0.800000011920929,0.800000011920929,1],"metallicFactor":0.400000005960464,"roughnessFactor":0.272165536880493}},{"alphaMode":"OPAQUE","doubleSided":false,"extras":{"fromFBX":{"isTruePBR":false,"shadingModel":"Phong"}},"name":"Material.013","pbrMetallicRoughness":{"baseColorFactor":[0.800000011920929,0.800000011920929,0.800000011920929,1],"metallicFactor":0.400000005960464,"roughnessFactor":0.272165536880493}},{"alphaMode":"OPAQUE","doubleSided":false,"extras":{"fromFBX":{"isTruePBR":false,"shadingModel":"Phong"}},"name":"Material.014","pbrMetallicRoughness":{"baseColorFactor":[0.800000011920929,0.800000011920929,0.800000011920929,1],"metallicFactor":0.400000005960464,"roughnessFactor":0.272165536880493}},{"alphaMode":"OPAQUE","doubleSided":false,"extras":{"fromFBX":{"isTruePBR":false,"shadingModel":"Phong"}},"name":"Material.015","pbrMetallicRoughness":{"baseColorFactor":[0.800000011920929,0.800000011920929,0.800000011920929,1],"metallicFactor":0.400000005960464,"roughnessFactor":0.272165536880493}},{"alphaMode":"OPAQUE","doubleSided":false,"extras":{"fromFBX":{"isTruePBR":false,"shadingModel":"Phong"}},"name":"Material.016","pbrMetallicRoughness":{"baseColorFactor":[0.800000011920929,0.800000011920929,0.800000011920929,1],"metallicFactor":0.400000005960464,"roughnessFactor":0.272165536880493}},{"alphaMode":"OPAQUE","doubleSided":false,"extras":{"fromFBX":{"isTruePBR":false,"shadingModel":"Phong"}},"name":"Material.017","pbrMetallicRoughness":{"baseColorFactor":[0.800000011920929,0.800000011920929,0.800000011920929,1],"metallicFactor":0.400000005960464,"roughnessFactor":0.272165536880493}}],"meshes":[{"name":"Wagon","primitives":[{"attributes":{"NORMAL":2,"POSITION":1,"TEXCOORD_0":3},"indices":0,"material":0,"mode":4},{"attributes":{"NORMAL":6,"POSITION":5,"TEXCOORD_0":7},"indices":4,"material":1,"mode":4},{"attributes":{"NORMAL":10,"POSITION":9,"TEXCOORD_0":11},"indices":8,"material":2,"mode":4}]},{"name":"Wagon.Wheel1","primitives":[{"attributes":{"NORMAL":14,"POSITION":13,"TEXCOORD_0":15},"indices":12,"material":3,"mode":4},{"attributes":{"NORMAL":18,"POSITION":17,"TEXCOORD_0":19},"indices":16,"material":4,"mode":4}]},{"name":"Wagon.Wheel2","primitives":[{"attributes":{"NORMAL":22,"POSITION":21,"TEXCOORD_0":23},"indices":20,"material":5,"mode":4},{"attributes":{"NORMAL":26,"POSITION":25,"TEXCOORD_0":27},"indices":24,"material":6,"mode":4}]}],"nodes":[{"mesh":0,"name":"Wagon","rotation":[0.000000021855694143369,0.00000000000000000000000000000232,0.00000000000000000000010627375081,1],"scale":[1,1,1],"translation":[-0.00607195589691,0.0133187538012862,-0.01146706473082]},{"mesh":1,"name":"Wagon.Wheel1","rotation":[0.000000021855694143369,0.00000000000000000000000000000232,0.00000000000000000000010627375081,1],"scale":[1,1,1],"translation":[-0.00607195589691,0.0133187538012862,-0.01146706473082]},{"mesh":2,"name":"Wagon.Wheel2","rotation":[0.000000021855694143369,0.00000000000000000000000000000232,0.00000000000000000000010627375081,1],"scale":[1,1,1],"translation":[-0.00607195589691,0.0133187538012862,-0.01146706473082]}],"samplers":[{}],"scene":0,"scenes":[{"name":"Root Scene","nodes":[0,1,2]}]}