{"accessors":[{"bufferView":0,"byteOffset":0,"componentType":5123,"count":3972,"type":"SCALAR"},{"bufferView":1,"byteOffset":0,"componentType":5126,"count":3968,"max":[0.00502845458686352,0.00504411803558469,0.00470618205145001],"min":[-0.00520572531968,-0.00511437654495,-0.00517143961042],"type":"VEC3"},{"bufferView":2,"byteOffset":0,"componentType":5126,"count":3968,"type":"VEC3"},{"bufferView":3,"byteOffset":0,"componentType":5126,"count":3968,"type":"VEC2"}],"asset":{"generator":"FBX2glTF v0.13.1","version":"2.0"},"bufferViews":[{"buffer":0,"byteLength":7944,"byteOffset":0,"target":34963},{"buffer":0,"byteLength":47616,"byteOffset":7944,"target":34962},{"buffer":0,"byteLength":47616,"byteOffset":55560,"target":34962},{"buffer":0,"byteLength":31744,"byteOffset":103176,"target":34962}],"buffers":[{"byteLength":134920,"uri":"Weed.bin"}],"images":[{"name":"Weed Base Color","uri":"Weed Base Color.png"}],"materials":[{"alphaMode":"OPAQUE","doubleSided":false,"extras":{"fromFBX":{"isTruePBR":false,"shadingModel":"Phong"}},"name":"Material.010","pbrMetallicRoughness":{"baseColorFactor":[1,1,1,0],"baseColorTexture":{"index":0,"texCoord":0},"metallicFactor":0.400000005960464,"roughnessFactor":0.415087103843689}}],"meshes":[{"name":"weed1","primitives":[{"attributes":{"NORMAL":2,"POSITION":1,"TEXCOORD_0":3},"indices":0,"material":0,"mode":4}]}],"nodes":[{"mesh":0,"name":"weed1","rotation":[0.000000021855694143369,0,0,1],"scale":[1,1,1],"translation":[0,0,0]}],"samplers":[{}],"scene":0,"scenes":[{"name":"Root Scene","nodes":[0]}],"textures":[{"name":"base_color_texture","sampler":0,"source":0}]}